<svg viewBox="0 0 75 36" xmlns:xlink="http://www.w3.org/1999/xlink" xmlns="http://www.w3.org/2000/svg" width="75" height="36" fill="none"><g fill="#FFFFFF" clip-path="url(#a)"><path d="m66.414 19.76-1.26 7.553c-.266 1.692.449 2.68 1.803 2.68l3.108-.002c1.764 0 2.15-1.384 2.4-2.846l1.797-9.658c.407-1.92.067-4.336-1.742-5.955-1.086-.974-1.984-1.327-3.935-1.327-2.584 0-5.518 1.867-6.715 4.306l.232-1.212c.546-2.448-.488-3.094-2.225-3.094l-2.24.003c-2.156 0-2.63 1.182-2.886 2.521L52.12 27.316c-.22.986-.084 2.68 1.86 2.68h3.124c1.833 0 2.22-1.461 2.457-2.842l1.267-6.993c.29-1.595.537-2.382 1.08-2.96.84-.965 2.499-1.382 3.672-.426.753.616 1.016 1.598.835 2.985ZM49.803 27.15c-.256 1.514-.693 2.847-2.481 2.847h-3.175c-1.52 0-2.053-1.146-1.794-2.617l2.611-14.648c.262-1.559.935-2.52 2.886-2.52h2.394c2.026 0 2.55.973 2.089 3.093l-2.53 13.846ZM49.598 8.164a3.58 3.58 0 0 0 3.576-3.582A3.58 3.58 0 0 0 49.598 1a3.58 3.58 0 0 0-3.576 3.582 3.58 3.58 0 0 0 3.576 3.582ZM15.093 10.214c.796.95 1.73 2.15 1.269 4.981l-1.248 6.664.229 5.37c.042 1.915.965 2.765 2.58 2.765L21.98 30c1.288 0 1.803-.98 2.325-2.222l3.094-7.626.313 7.276c.027 1.613.847 2.572 2.334 2.572l4.625-.003c1.315 0 1.863-.787 2.44-2.21l5.9-14.597c.64-1.51.272-2.982-1.327-2.982h-2.96c-1.104 0-1.843.383-2.277 1.433l-3.986 9.78-.365-8.725c-.06-1.854-.947-2.488-1.984-2.488h-3.015c-1.191 0-1.884.477-2.255 1.381l-4.002 9.836-.358-8.94c-.052-1.677-.61-2.274-1.954-2.274l-3.434.003ZM14.233 14.689c.36-1.773-.304-3.066-1.471-3.914-1.107-.742-2.476-.832-3.91-.111l-6.08 2.74c-1.51.682-2.185 2.464-1.51 3.983a2.993 2.993 0 0 0 3.962 1.52l.814-.368-1.309 7.125c-.376 2.135 1.02 3.91 2.913 4.27 2.011.38 3.944-.941 4.282-2.943l2.31-12.302Z" fill="#FFFFFF"></path></g><defs><clipPath id="a"><path fill="#fff" d="M0 1h75v29H0z"></path></clipPath></defs></svg>