<?xml version="1.0" encoding="utf-8"?>
<!-- Generator: Adobe Illustrator 25.3.1, SVG Export Plug-In . SVG Version: 6.00 Build 0)  -->
<svg version="1.1" id="Layer_1" xmlns="http://www.w3.org/2000/svg" xmlns:xlink="http://www.w3.org/1999/xlink" x="0px" y="0px"
	 viewBox="0 0 683 180" style="enable-background:new 0 0 683 180;" xml:space="preserve">
<style type="text/css">
	.st0{fill:#FFFFFF;}
	.st1{fill:#DFA746;}
</style>
<g>
	<path class="st0" d="M33.8,112.8c5,0,9.6-1.2,13.8-3.5c4.1-2.3,7.3-5.4,9.5-9.2l6.4,2.5c-2.8,5-6.8,9-12.1,11.9
		c-5.4,3.1-11.3,4.6-17.7,4.6c-4.5,0-8.8-0.8-12.9-2.3c-4-1.5-7.5-3.7-10.6-6.4c-3.1-2.8-5.5-5.9-7.1-9.5c-1.7-3.7-2.6-7.6-2.6-11.6
		s0.9-7.9,2.6-11.7c1.7-3.6,4.1-6.7,7.1-9.5c3.1-2.8,6.6-4.9,10.6-6.4c4.1-1.6,8.4-2.3,12.9-2.3c6.4,0,12.3,1.5,17.7,4.6
		c5.2,3,9.3,7,12.1,11.9l-6.4,2.5c-2.2-3.9-5.4-6.9-9.5-9.2c-4.2-2.4-8.8-3.5-13.8-3.5c-7.2,0-13.4,2.3-18.6,6.9
		c-5.1,4.6-7.7,10.2-7.7,16.7s2.6,12.1,7.7,16.7C20.3,110.5,26.5,112.8,33.8,112.8z"/>
	<path class="st0" d="M103.3,111.7h32.9v6.4h-40V60.4h7.1V111.7z"/>
	<path class="st0" d="M219.5,60.4v35.1c0,6.5-2.6,12.1-7.7,16.7s-11.3,6.9-18.5,6.9c-7.3,0-13.5-2.3-18.6-6.9S167,102,167,95.5V60.4
		h7v35.1c0,4.8,1.9,8.9,5.7,12.3c3.8,3.4,8.3,5.1,13.6,5.1c5.3,0,9.8-1.7,13.6-5.1c3.8-3.4,5.7-7.5,5.7-12.3V60.4H219.5z"/>
	<path class="st0" d="M289,90.7c3.5,3.1,5.2,6.9,5.2,11.3s-1.7,8.2-5.1,11.3c-3.5,3.1-7.6,4.7-12.5,4.7l0,0h-25.4V60.4H275
		c4.9,0,9,1.6,12.5,4.7s5.2,6.8,5.2,11.2c0,4.4-1.7,8.2-5.1,11.3c-0.4,0.3-0.8,0.7-1.3,1C287.2,89.3,288.2,89.9,289,90.7z
		 M258.4,66.8v19.3h16.7c2.9,0,5.5-1,7.5-2.9c2.1-1.9,3.1-4.1,3.1-6.8c0-2.7-1.1-4.9-3.2-6.8s-4.6-2.8-7.6-2.8L258.4,66.8
		L258.4,66.8z M276.6,111.7c2.9,0,5.5-1,7.6-2.9s3.1-4.2,3.1-6.8c0-2.7-1.1-4.9-3.2-6.8s-4.6-2.8-7.6-2.8h-18.2v19.3L276.6,111.7
		L276.6,111.7z"/>
	<path class="st0" d="M375.5,60.4v57.7h-7.1V92.4h-34.5v25.7h-7.1V60.4h7.1V86h34.5V60.4H375.5z"/>
	<path class="st0" d="M546.8,60.4v35.1c0,6.5-2.6,12.1-7.7,16.7c-5.1,4.6-11.3,6.9-18.5,6.9c-7.3,0-13.5-2.3-18.6-6.9
		s-7.7-10.2-7.7-16.7V60.4h7v35.1c0,4.8,1.9,8.9,5.7,12.3s8.3,5.1,13.6,5.1s9.8-1.7,13.6-5.1s5.7-7.5,5.7-12.3V60.4H546.8z"/>
	<path class="st0" d="M597.2,119.1c-5.3,0-10.1-1.1-14.3-3.4c-5.2-2.7-8.6-6.6-10.3-11.7l6.7-1.8c1.2,3.6,3.6,6.3,7.3,8.2
		c3.1,1.6,6.7,2.4,10.7,2.4c0.6,0,1.2,0,1.6,0s1-0.1,1.6-0.2c1.8-0.2,3.4-0.7,4.8-1.2c4.2-1.7,6.4-4.7,6.8-8.8
		c0.2-2.2-0.5-4.1-2.1-5.8c-2.5-2.6-6.5-4.1-12.1-4.4c-9.3-0.6-16-2.5-20.2-5.9c-3.2-2.5-4.7-5.8-4.7-9.8c0-5.4,2.4-9.7,7.1-12.9
		c4.3-2.9,9.4-4.4,15.5-4.4c7.2,0,13.2,2.3,18,6.9c1.5,1.5,2.8,3.1,4,4.9c0.4,0.6,0.8,1.4,1.3,2.5l-6.5,2.2
		c-0.4-0.8-0.8-1.5-1.4-2.4s-1.4-1.8-2.5-2.8c-3.5-3.3-7.8-4.9-12.9-4.9c-1.5,0-3.1,0.2-4.7,0.5c-1.9,0.4-3.6,1-5.1,1.7
		c-3.9,2-5.8,5-5.8,8.8c0,5.6,6.2,8.7,18.5,9.4c7.4,0.5,13.1,2.7,16.8,6.6c2.9,3,4.2,6.5,3.8,10.4c-0.5,5.2-3,9.3-7.5,12.2
		C607.5,117.8,602.8,119.1,597.2,119.1L597.2,119.1z"/>
	<path class="st0" d="M682.5,111.7v6.4h-38.2V60.4h38.2v6.4h-31.1v19.1h25.1v6.4h-25.1v19.5h31.1V111.7z"/>
</g>
<g>
	<g>
		<path class="st1" d="M438.2,67.1c-5.7,0.8-9.9,6.1-9.3,11.8c0.3,3.4,2.2,6.2,4.8,8l0,0c0.5,0.3,0.9,0.4,1.4,0.4
			c0.9-0.1,1.6-1,1.5-1.9c-0.1-0.6-0.4-0.9-0.9-1.3l0,0c-1.7-1.1-2.9-2.9-3.2-5.1c-0.5-4,2.3-7.7,6.3-8.2s7.7,2.2,8.2,6.2l0,0
			c0,0,0.1,0.5,0.1,1.3c0-0.4,0-0.8-0.1-1.3c0,0,0,0,0-0.1V79c0-0.1,0-0.1,0-0.2c-0.2,2-1.2,5.3-5,8.8l0,0c-0.5,0.5-0.8,1-0.7,1.6
			c0.1,1,1,1.6,2,1.5c0.1,0,0.3-0.1,0.4-0.1c0.2-0.1,0.4-0.2,0.5-0.4l0.1-0.1l0,0c7.5-6.8,6.1-13.5,6.1-13.5v-0.2
			C449.8,70.4,444.2,66.2,438.2,67.1z"/>
	</g>
	<g>
		<path class="st1" d="M460.8,107L460.8,107c-0.2,0-0.2,0-0.3,0H460.8z"/>
	</g>
	<g>
		<path class="st1" d="M458.2,85.6c-0.6,0-1.1,0-1.7,0.1l0.5-0.1c0,0-5.7,0.1-12.5,8.7l-0.1,0.1c-0.1,0.3-0.1,0.5-0.1,0.8
			c0.1,1,0.9,1.7,1.9,1.6c0.5,0,0.9-0.3,1.2-0.6l0,0c5.5-7.3,10.6-7.1,10.6-7.1h0.2c4,0,7.3,3.3,7.3,7.3c0,3.5-2.3,6.3-5.6,7.1l0,0
			c-7.7,2.3-12.8-2.8-23.4-10.5c-7.6-5.6-10.8-6.8-12.2-7.2l0,0l0,0l0,0c-0.1,0-0.4-0.1-0.5-0.1c-0.2,0-0.3-0.1-0.3-0.1h0.1
			c-0.6-0.1-1.2-0.2-1.8-0.2c-6,0-10.9,4.9-10.9,10.9c0,5.8,4.5,10.5,10.1,10.8h-0.1c0,0,0.2,0,0.6,0c0.1,0,0.2,0,0.2,0
			c0.2,0,0.4,0,0.7,0h-0.2c2.3-0.1,7.3-0.9,12.3-5.5c0.4-0.3,0.7-0.7,0.7-1.3c0.1-1-0.6-1.8-1.6-1.9c-0.5,0-1,0.1-1.4,0.5l0,0
			c-4.9,4.4-9.1,4.8-10.9,4.7l0,0c-0.1,0-0.1,0-0.2,0h0.1l-1.1-0.1c0,0,0,0,0.1,0c0.2,0,0.4,0.1,0.7,0.1c-0.3,0-0.6-0.1-0.7-0.1
			c-3.4-0.6-5.9-3.6-5.9-7.2c0-4,3.3-7.3,7.3-7.3h0.9c0,0,3.1,0,12.9,7.5c10.4,7.9,14.7,12.4,25.2,10.3c4.8-1.1,8.3-5.4,8.3-10.6
			C469,90.4,464.2,85.6,458.2,85.6z"/>
	</g>
	<g>
		<path class="st1" d="M451.2,115c0,0-4.9-3.9-7.7-9.1c-0.4-0.8-1.4-1.1-2.2-0.7s-1.1,1.4-0.7,2.2c1.6,3,3.7,5.5,5.4,7.3h-14.1l0,0
			h-24.4c-1.3,0-2.3-1-2.3-2.3V75.7c0-0.8,0.4-1.5,1-1.9l27.2-18c0.7-0.5,1.7-0.5,2.5,0l30.3,19c0.8,0.5,1.7,0.2,2.2-0.5
			c0.5-0.8,0.2-1.7-0.5-2.2l-30.3-19c-1.8-1.1-4.2-1.1-5.9,0.1l-27.2,18c-1.5,1-2.5,2.7-2.5,4.6v36.6c0,3,2.5,5.5,5.5,5.5h33.3l0,0
			h9.3c0.7,0,1.3-0.4,1.5-1.1C451.8,116.2,451.7,115.4,451.2,115z"/>
	</g>
</g>
<g>
	<path class="st0" d="M202.5,176.2c2.2,0,4.2-0.5,6.1-1.6c1.8-1,3.2-2.4,4.2-4.1l2.8,1.1c-1.2,2.2-3,4-5.3,5.3c-2.4,1.4-5,2-7.8,2
		c-2,0-3.9-0.3-5.7-1c-1.8-0.7-3.3-1.6-4.7-2.8c-1.4-1.2-2.4-2.6-3.2-4.2c-0.8-1.6-1.1-3.3-1.1-5.1c0-1.8,0.4-3.5,1.1-5.2
		c0.8-1.6,1.8-3,3.2-4.2c1.4-1.2,2.9-2.2,4.7-2.8c1.8-0.7,3.7-1,5.7-1c2.8,0,5.4,0.7,7.8,2c2.3,1.3,4.1,3.1,5.3,5.3l-2.8,1.1
		c-1-1.7-2.4-3.1-4.2-4.1c-1.9-1-3.9-1.6-6.1-1.6c-3.2,0-5.9,1-8.2,3.1c-2.3,2-3.4,4.5-3.4,7.4s1.1,5.3,3.4,7.4
		C196.6,175.2,199.4,176.2,202.5,176.2z"/>
	<path class="st0" d="M273.4,178.5H270l-2.1-4.7h-12l-2.1,4.7h-3.4l11.5-25.5L273.4,178.5z M266.6,171l-4.7-10.5l-4.7,10.5H266.6z"
		/>
	<path class="st0" d="M319.8,179c-2.3,0-4.4-0.5-6.3-1.5c-2.3-1.2-3.8-2.9-4.5-5.2l3-0.8c0.5,1.6,1.6,2.8,3.2,3.6
		c1.4,0.7,2.9,1,4.7,1c0.3,0,0.5,0,0.7,0s0.4,0,0.7-0.1c0.8-0.1,1.5-0.3,2.1-0.6c1.8-0.8,2.8-2.1,3-3.9c0.1-1-0.2-1.8-0.9-2.6
		c-1.1-1.2-2.9-1.8-5.3-2c-4.1-0.2-7.1-1.1-8.9-2.6c-1.4-1.1-2.1-2.6-2.1-4.3c0-2.4,1-4.3,3.1-5.7c1.9-1.3,4.2-2,6.9-2
		c3.2,0,5.8,1,8,3c0.7,0.7,1.3,1.4,1.8,2.1c0.2,0.2,0.4,0.6,0.6,1.1l-2.9,1c-0.2-0.3-0.4-0.7-0.6-1.1s-0.6-0.8-1.1-1.2
		c-1.5-1.5-3.4-2.2-5.7-2.2c-0.7,0-1.4,0.1-2.1,0.2c-0.8,0.2-1.6,0.4-2.3,0.8c-1.7,0.9-2.6,2.2-2.6,3.9c0,2.5,2.7,3.8,8.2,4.2
		c3.3,0.2,5.8,1.2,7.4,2.9c1.3,1.3,1.8,2.9,1.7,4.6c-0.2,2.3-1.3,4.1-3.3,5.4C324.4,178.4,322.2,179,319.8,179L319.8,179z"/>
	<path class="st0" d="M366.6,178.5V153h3.1v25.5H366.6z"/>
	<path class="st0" d="M431.2,179.1L411,159.7v18.9h-3.2v-26l20.3,19.5v-19h3.1v26H431.2z"/>
	<path class="st0" d="M477,177.9c-1.8-0.7-3.3-1.6-4.7-2.8c-1.4-1.2-2.4-2.6-3.2-4.2s-1.2-3.4-1.2-5.2c0-1.8,0.4-3.5,1.2-5.1
		s1.8-3,3.2-4.2s2.9-2.2,4.7-2.8c1.8-0.7,3.7-1,5.7-1s3.9,0.3,5.7,1c1.7,0.7,3.3,1.6,4.7,2.8c1.4,1.2,2.4,2.6,3.2,4.2
		s1.2,3.3,1.2,5.1c0,1.8-0.4,3.5-1.2,5.2c-0.7,1.6-1.8,3-3.2,4.2s-2.9,2.2-4.7,2.8c-1.8,0.7-3.7,1-5.7,1
		C480.7,179,478.8,178.6,477,177.9z M474.5,158.4c-2.3,2-3.4,4.5-3.4,7.4s1.1,5.3,3.4,7.4c2.3,2,5,3.1,8.2,3.1s5.9-1,8.2-3.1
		c2.3-2,3.4-4.5,3.4-7.4s-1.1-5.3-3.4-7.4c-2.3-2-5-3.1-8.2-3.1S476.7,156.3,474.5,158.4z"/>
</g>
<g>
	<path class="st0" d="M308.8,0.9v2.8h-10v22.7h-3.1V3.7h-10.1V0.9H308.8z"/>
	<path class="st0" d="M354.4,0.9v25.5h-3.1V15H336v11.4h-3.1V0.9h3.1v11.3h15.2V0.9H354.4z"/>
	<path class="st0" d="M397,23.6v2.8h-16.9V0.9H397v2.8h-13.8v8.5h11.1V15h-11.1v8.6L397,23.6L397,23.6z"/>
</g>
</svg>
