<svg width="147" height="27" viewBox="0 0 147 27" fill="none" xmlns="http://www.w3.org/2000/svg">
<g clip-path="url(#clip0_2002_104)">
<path d="M48.3471 15.4495C48.0942 18.9265 45.0459 19.9687 41.3392 19.9687C37.4784 19.961 34.2928 18.8431 34.3082 14.9438V14.1929C34.2928 10.3014 37.4797 9.18344 41.3392 9.16804C45.0459 9.17574 48.0955 10.2179 48.3471 13.6872H44.2335C43.8587 12.6758 42.7164 12.4384 41.3379 12.4384C39.6989 12.4615 38.305 12.7529 38.3281 14.4458V14.6986C38.305 16.3762 39.6989 16.6829 41.3379 16.706C42.7164 16.706 43.8651 16.4609 44.2335 15.4495H48.3471Z" fill="white"/>
<path d="M59.4635 9.42859C61.5851 9.40549 63.3846 11.1908 63.3551 13.3202C63.3551 14.0941 63.1484 14.7988 62.7351 15.4264C62.3296 16.0463 61.7854 16.5212 61.1115 16.8357L63.3564 19.7235H59.0823L57.1442 17.2117H53.5594V19.7235H49.5459V9.42859H59.4648H59.4635ZM53.5581 12.4384V14.1929H58.4521C58.6973 14.1929 58.9039 14.1082 59.072 13.9401C59.2402 13.772 59.3326 13.5576 59.3326 13.3202C59.3326 12.8299 58.9424 12.4397 58.4521 12.4397H53.5581V12.4384Z" fill="white"/>
<path d="M69.1847 9.43629H73.9568L79.4797 19.7312H74.9605L74.1493 17.969H68.9947L68.1823 19.7312H63.6631L69.186 9.43629H69.1847ZM70.1563 15.4572H72.9826L71.5733 12.4166L70.1563 15.4572Z" fill="white"/>
<path d="M86.1973 13.4036C89.0698 13.5486 93.1064 13.7489 93.0987 16.33C93.0987 19.2718 89.7282 19.9687 86.1139 19.9687C82.5059 19.961 79.5115 19.5246 79.1278 16.33H83.3325C83.792 17.127 84.8573 17.3337 86.1126 17.3337C87.3678 17.3337 88.8926 17.127 88.8926 16.33C88.8926 15.8782 87.6438 15.8089 86.0279 15.7331C83.1554 15.5881 79.1188 15.3879 79.1265 12.8145C79.1265 9.87268 82.4969 9.16804 86.1126 9.16804C89.7205 9.19114 92.7149 9.59673 93.0974 12.8145H88.8926C88.4331 12.002 87.3678 11.8108 86.1126 11.8108C84.8573 11.8108 83.3325 11.9943 83.3325 12.8145C83.3325 13.2663 84.5814 13.3279 86.1973 13.4036Z" fill="white"/>
<path d="M98.1854 16.1991V19.7146H94.1719V9.41961H98.1854V12.9351H104.214V9.41961H108.235V19.7146H104.214V16.1991H98.1854Z" fill="white"/>
<path d="M114.586 9.42089V19.7158H110.572V9.42089H114.586Z" fill="white"/>
<path d="M126.757 9.42089H130.779V19.7158H126.259L120.729 13.428V19.7158H116.715V9.42089H122.238L126.757 14.8745V9.42089Z" fill="white"/>
<path d="M146.26 14.1929V14.9438C146.275 18.8354 143.104 19.961 139.237 19.9687C135.36 19.961 132.19 18.8354 132.206 14.9438V14.1929C132.19 10.2937 135.362 9.17574 139.237 9.16804C143.113 9.16804 146.26 10.3014 146.26 14.1929ZM142.246 14.4381C142.27 12.7606 140.876 12.4538 139.237 12.4307C137.59 12.4538 136.196 12.7606 136.219 14.4381V14.6909C136.196 16.3762 137.59 16.6829 139.237 16.706C140.876 16.6829 142.27 16.3762 142.246 14.6909V14.4381Z" fill="white"/>
<path opacity="0.2" d="M3.33938 20.3201L-0.000488281 23.6599L3.33938 26.9998L6.67924 23.6599L3.33938 20.3201Z" fill="url(#paint0_linear_2002_104)"/>
<path opacity="0.6" d="M6.6802 16.9789L3.34033 20.3187L6.6802 23.6586L10.0201 20.3187L6.6802 16.9789Z" fill="url(#paint1_linear_2002_104)"/>
<path opacity="0.9" d="M10.02 13.6395L6.68018 16.9793L10.02 20.3192L13.3599 16.9793L10.02 13.6395Z" fill="url(#paint2_linear_2002_104)"/>
<path opacity="0.3" d="M10.0205 20.3207L6.68066 23.6606L10.0205 27.0005L13.3604 23.6606L10.0205 20.3207Z" fill="url(#paint3_linear_2002_104)"/>
<path opacity="0.6" d="M13.3594 16.9804L10.0195 20.3203L13.3594 23.6602L16.6993 20.3203L13.3594 16.9804Z" fill="url(#paint4_linear_2002_104)"/>
<path opacity="0.4" d="M16.7007 20.3201L13.3608 23.66L16.7007 26.9998L20.0406 23.66L16.7007 20.3201Z" fill="url(#paint5_linear_2002_104)"/>
<path d="M33.6711 2.25639C33.6326 1.03065 32.6481 0.0474887 31.4237 0.00898373C26.6144 -0.141186 21.9566 1.7032 18.554 5.10576L10.02 13.6398L20.0403 23.66L28.5743 15.1261C31.9769 11.7235 33.8212 7.06567 33.6711 2.25639ZM28.7052 10.6569C27.1573 12.2048 24.6468 12.2048 23.0989 10.6569C21.551 9.109 21.551 6.59847 23.0989 5.05057C24.6468 3.50267 27.1573 3.50267 28.7052 5.05057C30.2531 6.59847 30.2531 9.109 28.7052 10.6569Z" fill="url(#paint6_linear_2002_104)"/>
<path opacity="0.3" d="M25.4866 22.8784L25.235 18.4388L20.0278 23.6459L22.9452 26.5633L24.7832 24.7254C25.2709 24.2376 25.5276 23.5651 25.4878 22.8771L25.4866 22.8784Z" fill="url(#paint7_linear_2002_104)"/>
<path d="M10.7889 8.17975L15.2286 8.43131L10.0214 13.6385L7.104 10.7211L8.94198 8.8831C9.42971 8.39537 10.1023 8.13867 10.7902 8.17846L10.7889 8.17975Z" fill="url(#paint8_linear_2002_104)"/>
</g>
<defs>
<linearGradient id="paint0_linear_2002_104" x1="30.412" y1="-3.59426" x2="5.11939" y2="21.8678" gradientUnits="userSpaceOnUse">
<stop stop-color="#E653DD"/>
<stop offset="1" stop-color="#4E23D5"/>
</linearGradient>
<linearGradient id="paint1_linear_2002_104" x1="30.4246" y1="-3.58223" x2="5.1319" y2="21.8798" gradientUnits="userSpaceOnUse">
<stop stop-color="#E653DD"/>
<stop offset="1" stop-color="#4E23D5"/>
</linearGradient>
<linearGradient id="paint2_linear_2002_104" x1="30.4339" y1="-3.5724" x2="5.14124" y2="21.8897" gradientUnits="userSpaceOnUse">
<stop stop-color="#E653DD"/>
<stop offset="1" stop-color="#4E23D5"/>
</linearGradient>
<linearGradient id="paint3_linear_2002_104" x1="33.7753" y1="-0.253033" x2="8.48268" y2="25.209" gradientUnits="userSpaceOnUse">
<stop stop-color="#E653DD"/>
<stop offset="1" stop-color="#4E23D5"/>
</linearGradient>
<linearGradient id="paint4_linear_2002_104" x1="33.7846" y1="-0.241911" x2="8.49195" y2="25.2202" gradientUnits="userSpaceOnUse">
<stop stop-color="#E653DD"/>
<stop offset="1" stop-color="#4E23D5"/>
</linearGradient>
<linearGradient id="paint5_linear_2002_104" x1="37.1364" y1="3.08638" x2="11.8437" y2="28.5485" gradientUnits="userSpaceOnUse">
<stop stop-color="#E653DD"/>
<stop offset="1" stop-color="#4E23D5"/>
</linearGradient>
<linearGradient id="paint6_linear_2002_104" x1="33.8058" y1="-0.22333" x2="8.51319" y2="25.2387" gradientUnits="userSpaceOnUse">
<stop stop-color="#E653DD"/>
<stop offset="1" stop-color="#4E23D5"/>
</linearGradient>
<linearGradient id="paint7_linear_2002_104" x1="40.2712" y1="6.19931" x2="14.9785" y2="31.6614" gradientUnits="userSpaceOnUse">
<stop stop-color="#E653DD"/>
<stop offset="1" stop-color="#4E23D5"/>
</linearGradient>
<linearGradient id="paint8_linear_2002_104" x1="27.3102" y1="-6.67549" x2="2.01749" y2="18.7866" gradientUnits="userSpaceOnUse">
<stop stop-color="#E653DD"/>
<stop offset="1" stop-color="#4E23D5"/>
</linearGradient>
<clipPath id="clip0_2002_104">
<rect width="146.26" height="26.9997" fill="white"/>
</clipPath>
</defs>
</svg>
