<svg xmlns="http://www.w3.org/2000/svg" width="111" height="26" viewBox="0 0 111 26"><g><g><g><g><path fill="#ff474f" d="M88.75.142c.803-.215 1.941-.246 2.598.337.992.761 1.143 2.326.265 3.22-.941 1.13-3.03 1.06-3.828-.197-.864-1.14-.346-2.778.965-3.36z"/></g><g><path fill="#ff474f" d="M41.363 12.095c.499-.144 1.206-.164 1.614.225.616.507.71 1.551.164 2.147-.584.753-1.88.707-2.377-.131-.537-.76-.215-1.853.6-2.24z"/></g></g><g><g><path fill="#fff" d="M60.202 5.209a15.886 15.886 0 0 1 5.935 2.139 86.73 86.73 0 0 1-1.89 3.026c-1.745-1.124-3.772-1.836-5.901-1.56-.522.095-1.115.261-1.412.72-.25.297-.051.758.277.914.896.48 1.971.702 2.95.974 1.062.261 2.088.625 3.104 1.017 1.091.439 2.12 1.118 2.758 2.09.47.752.502 1.573.419 2.425-.164 1.493-1.097 2.875-2.45 3.634-1.148.687-2.43.933-3.764 1.024-3.167.087-5.947-.89-8.768-2.143.546-1.232 1.06-2.473 1.627-3.696 2.015 1.001 4.093 1.749 6.38 1.878.623.019 1.431-.057 1.882-.523.3-.244.277-.624.2-.961-.36-.4-1.02-.581-1.53-.744-1.35-.37-2.72-.638-4.041-1.109-1.382-.471-2.691-1.173-3.51-2.377-.528-.785-.553-1.8-.466-2.7.191-1.47 1.223-2.677 2.598-3.309 1.78-.882 3.651-.895 5.602-.719z"/></g></g><g><g><path fill="#fff" d="M8.054 5.368c2.007.125 4.045.833 5.427 2.28 1.338 1.362 1.934 3.165 1.957 5.012-.008.844-.227 1.694-.387 2.523-3.323.011-6.647-.015-9.968.015.49.945 1.172 1.484 2.228 1.794 1.49.356 3.02.05 4.312-.724 1.176.834 2.352 1.669 3.471 2.573-1.524 1.439-3.554 2.094-5.652 2.26-1.277.01-2.497.138-3.695-.282a8.054 8.054 0 0 1-5.07-4.553c-1.61-3.403-.262-7.987 3.12-9.927 1.3-.689 2.765-1.08 4.257-.97zm-3.001 5.888c1.819.089 3.652.047 5.474.028-.221-1.02-.875-1.695-1.95-1.898-.792-.055-1.573-.136-2.274.278-.685.352-.96.94-1.25 1.592z"/></g></g><g><g><path fill="#fff" d="M39.775 5.793c2.27-.581 4.818-.237 6.76 1.058 1.432.969 2.581 2.316 3.139 3.92.484 1.21.508 2.467.371 3.743-.31 1.853-1.309 3.577-2.79 4.805-1.368 1.077-3.206 1.866-5.001 1.804-.977.015-1.92.013-2.845-.334-3.272-.972-5.744-4.061-5.619-7.379-.196-3.486 2.49-6.764 5.985-7.617zm1.128 4.355c-1.83.488-3.003 2.553-2.283 4.264.457 1.381 1.926 2.308 3.416 2.295 1.238-.06 2.422-.734 2.995-1.798.435-.681.388-1.57.309-2.339-.287-1.363-1.606-2.508-3.084-2.508-.447-.01-.916-.013-1.353.086z"/></g></g><g><g><path fill="#fff" d="M102.545 5.514c.777-.005 1.58-.024 2.347.106a8.296 8.296 0 0 1 3.572 1.758c1.645 1.439 2.545 3.543 2.53 5.667.01 2.611-.003 5.225.005 7.837-1.552 0-3.106-.002-4.658.002.002-2.428-.004-4.858.004-7.287-.016-.946-.113-1.934-.799-2.672-1.18-1.311-3.501-1.359-4.794-.176-.575.557-.949 1.297-.917 2.09-.006 2.677-.006 5.357 0 8.035-1.578.015-3.156.002-4.733.01.006-2.553.002-5.104.002-7.656-.07-2.16.871-4.37 2.544-5.832 1.329-1.144 3.092-1.908 4.897-1.882z"/></g></g><g><g><path fill="#fff" d="M16.32 5.787c1.793-.044 3.588-.012 5.381-.02 1.17 1.982 2.268 4.009 3.49 5.962 1.279-1.93 2.327-4.003 3.55-5.969 1.794.023 3.589-.017 5.382.023-2.944 5.023-5.935 10.025-8.883 15.046-.785-1.108-1.393-2.326-2.117-3.473-2.256-3.861-4.579-7.692-6.803-11.57z"/></g></g><g><g><path fill="#fff" d="M87.583 5.771c1.475 0 2.952-.004 4.427.002a9626.5 9626.5 0 0 0 0 15.105c-1.475.007-2.952.003-4.427.002-.004-5.037-.004-10.073 0-15.109z"/></g></g><g><g><path fill="#fff" d="M77.25 5.887c3.45 0 6.602 2.303 7.616 5.445 1.241 3.497-.485 7.515-3.853 9.262-1.552.85-3.377 1.117-5.129.821-.881-.168-1.55-.617-2.285-1.075-.026 1.884-.002 3.765-.016 5.648-1.57.01-3.141.006-4.711.004-.01-3.88.002-7.76-.006-11.64-.052-1.457.233-3.003.959-4.298 1.401-2.59 4.365-4.298 7.425-4.167zm-.531 4.478c-1.778.185-3.219 1.692-3.132 3.422-.004 1.854 1.732 3.393 3.661 3.285 1.877-.064 3.42-1.684 3.306-3.48-.006-1.897-1.882-3.44-3.835-3.227z"/></g></g></g></g></svg>