<?xml version="1.0" encoding="UTF-8"?>
<svg id="fezbet" xmlns="http://www.w3.org/2000/svg" width="560" height="160" viewBox="0 0 560 160">
  <defs>
    <style>
      .cls-1 {
        fill: #19181d;
      }

      .cls-1, .cls-2 {
        stroke-width: 0px;
      }

      .cls-2 {
        fill: #ffdc26;
      }
    </style>
  </defs>
  <path class="cls-1" d="M355.11,53.89c7.87,0,14.9,1.71,21.05,5.14,6.28,3.42,11.17,8.29,14.69,14.54,3.54,6.25,5.32,13.48,5.32,21.65s-1.77,15.44-5.32,21.8c-3.54,6.25-8.44,11.11-14.69,14.54-6.16,3.42-13.18,5.14-21.05,5.14-5.56,0-10.66-.96-15.32-2.88-4.53-1.92-8.38-4.81-11.5-8.62v10.45h-18.02V23.31h18.95v41.33c3.24-3.54,7.03-6.22,11.35-8.02,4.44-1.83,9.28-2.73,14.54-2.73ZM352.98,120.5c6.97,0,12.67-2.31,17.12-6.97,4.53-4.66,6.82-10.75,6.82-18.32s-2.28-13.66-6.82-18.32c-4.44-4.66-10.15-6.97-17.12-6.97-4.53,0-8.65,1.05-12.28,3.18-3.63,2.01-6.52,4.96-8.65,8.77-2.13,3.84-3.18,8.29-3.18,13.33s1.05,9.49,3.18,13.33,5.02,6.82,8.65,8.92c3.66,2.01,7.75,3.03,12.28,3.03Z"/>
  <path class="cls-1" d="M490.2,95.66c0,1.32-.09,3.18-.3,5.59h-63.49c1.11,5.95,3.99,10.69,8.65,14.24,4.75,3.42,10.6,5.14,17.57,5.14,8.89,0,16.22-2.91,21.98-8.77l10.15,11.65c-3.63,4.32-8.23,7.63-13.79,9.85-5.56,2.22-11.8,3.33-18.8,3.33-8.89,0-16.73-1.77-23.49-5.29-6.76-3.54-12.01-8.44-15.77-14.69-3.63-6.37-5.47-13.51-5.47-21.5s1.77-14.93,5.32-21.2c3.63-6.37,8.65-11.29,15.02-14.84s13.54-5.29,21.5-5.29,14.9,1.77,21.05,5.29c6.28,3.42,11.11,8.32,14.54,14.69,3.54,6.28,5.32,13.54,5.32,21.8ZM449.3,69.02c-6.07,0-11.2,1.8-15.47,5.44-4.14,3.54-6.67,8.29-7.57,14.24h45.92c-.81-5.86-3.27-10.6-7.42-14.24-4.14-3.63-9.31-5.44-15.47-5.44Z"/>
  <path class="cls-1" d="M557.02,131.25c-2.22,1.8-4.96,3.18-8.17,4.08-3.12.9-6.46,1.35-10,1.35-8.89,0-15.77-2.31-20.6-6.97-4.87-4.66-7.27-11.41-7.27-20.27v-38.92h-13.33v-15.14h13.33v-18.44h18.95v18.47h21.68v15.14h-21.68v38.44c0,3.93.96,6.97,2.88,9.07,1.92,2.01,4.72,3.03,8.35,3.03,4.23,0,7.78-1.11,10.6-3.33l5.26,13.48Z"/>
  <path class="cls-2" d="M38.75,56.62v18.17h44.24v26.94h-44.24v33.91H2.98V29.68h86.22v26.94s-50.46,0-50.46,0Z"/>
  <path class="cls-2" d="M188.67,108.7v26.94h-88.18V29.68h86.22v26.94h-51.06v12.4h44.84v25.74h-44.87v13.94h53.04Z"/>
  <path class="cls-2" d="M296.1,107.92v27.72h-97.43v-21.95l48.47-56.31h-46.97v-27.69h93.49v21.95l-48.5,56.28h50.94Z"/>
</svg>