<svg width="178" height="41" viewBox="0 0 178 41" fill="none" xmlns="http://www.w3.org/2000/svg">
<path d="M19.2821 0.501266V0.5H19.1961V0.501266C18.5407 0.51176 14.2834 0.594876 11.5162 1.01773C8.2199 1.52143 3.23253 3.08866 3.23253 3.08866C3.23253 3.08866 -0.0850974 10.5174 0.564217 16.199C2.54785 33.5559 19.1961 40.3292 19.1961 40.3292H19.2821C19.2821 40.3292 35.7713 33.5559 37.7549 16.199C38.4042 10.5174 35.2457 3.08866 35.2457 3.08866C35.2457 3.08866 30.2583 1.52143 26.962 1.01773C24.1948 0.594876 19.9375 0.51176 19.2821 0.501266Z" fill="#FFEE33"/>
<path fill-rule="evenodd" clip-rule="evenodd" d="M20.9007 7.71862C18.1929 5.36841 17.7262 10.3033 20.9007 8.19841C21.0521 8.33875 21.1278 8.6896 20.8253 9.04038C21.2034 9.60168 20.6154 9.81219 20.6154 9.81219C20.0339 9.57713 19.0206 9.54633 18.5577 9.81219C21.3544 10.2331 22.1859 11.7066 22.1103 13.3203C21.5812 12.8993 20.9009 12.6187 20.2962 12.6187C20.5985 13.2501 20.9802 14.4269 20.6023 15.1987C20.1999 14.2394 19.4647 13.8114 18.7088 13.7413C18.9525 14.614 18.7088 15.7381 17.953 16.4075C17.7262 15.9865 17.3482 15.776 16.8191 15.6357C17.2398 15.9439 17.5571 16.4075 17.6246 17.2197C18.3575 16.8938 19.2899 15.6734 19.2653 14.614C19.77 14.614 20.3718 15.6357 20.523 16.4075C21.2032 15.8462 21.7141 14.4356 21.3362 13.5937C23.139 14.9389 26.2797 15.5663 29.3907 14.3511C29.6764 12.996 31.4688 12.1988 32.5588 12.8243C31.9691 13.0247 31.8427 13.3771 31.8424 13.7304C31.0226 13.7881 30.5178 14.0065 30.1887 14.6139C30.896 14.0538 33.2306 13.7405 33.6001 15.2565C33.078 15.1055 32.5731 15.2196 32.2843 15.5663C31.8664 15.1909 31.1946 15.1063 30.5471 15.4195C31.8848 15.4527 32.7717 16.182 32.5373 17.3771C32.2843 16.8171 31.5021 16.7276 31.0693 16.8077C30.9619 16.2169 30.6562 15.8667 29.9765 15.8837C29.7068 16.7899 29.8439 17.3771 30.8026 18.372C29.5354 18.3057 28.6719 17.5793 28.3838 16.4075C28.1161 17.2666 28.239 17.6924 28.8373 18.372C27.4711 18.372 26.7784 17.7688 26.4437 16.4075C26.0685 17.2562 26.1474 17.7688 26.872 18.372C25.5148 18.2555 24.8063 17.6223 24.5036 16.4075C24.0964 17.2562 24.1753 17.6956 24.9067 18.372C23.6446 18.372 22.6765 17.5491 22.5635 16.4075C22.1855 17.1793 19.9934 19.2841 18.0282 19.7753C20.2311 23.1139 19.6789 27.8733 14.7881 28.6788C14.809 29.6121 15.6558 30.729 16.5236 31.095C17.6695 30.2567 19.6562 30.3879 20.0633 31.5001C19.471 31.3065 19.1319 31.5037 18.8895 31.776C18.259 31.2415 17.5491 31.1683 17.0081 31.4812C17.9376 31.4667 19.9536 32.6037 19.1996 33.9916C18.9004 33.5667 18.4326 33.3566 17.9721 33.4535C17.9435 32.6327 17.4702 32.3143 16.7325 32.3143C17.7418 33.13 17.9262 34.2163 16.9261 35C16.8562 34.2834 16.7073 34.0602 16.3185 33.8665C16.6201 33.3802 16.5249 32.8028 16.0715 32.4125C15.1623 32.4125 14.6304 32.9841 14.7157 34.0678C13.8534 33.2674 14.0782 31.8875 15.1623 31.4458C14.0332 31.3599 13.4471 32.0469 13.5518 32.9841C12.9066 32.1442 12.9746 31.0714 14.2531 30.479C13.0717 30.479 12.5397 30.9182 12.5397 31.8875C11.7117 30.9728 12.1588 29.7463 13.3438 29.5123C12.2753 29.3406 11.6328 29.8503 11.5275 30.7908C11.0017 29.7383 11.3173 28.8984 12.4346 28.5456C11.9483 28.2395 11.0806 28.2395 10.6862 28.9716C10.6862 27.7087 11.6328 26.8482 13.3416 27.2827C14.8219 26.5811 15.1561 24.9673 14.0979 23.985C9.55701 28.6893 5.24814 22.2082 7.4001 16.9329C6.69198 16.9329 6.14525 16.4234 6.14525 15.7976C6.63956 16.1606 7.54368 15.9584 7.75958 15.4016C6.55819 15.5983 5.56842 15.1486 5.73615 14.2922C6.4386 14.8761 7.57062 14.6328 7.84475 14.0489C6.58537 14.2435 5.42304 13.7862 5.62254 12.7059C6.14525 13.2314 7.14272 13.3093 7.68837 12.9242C6.3378 12.7059 5.34935 11.9221 5.67496 10.7499C6.06287 11.4409 6.71144 11.8212 7.58945 11.457C6.5246 11.2056 5.44737 9.81799 6.39206 8.98136C6.47615 9.51463 6.95974 9.92244 7.50536 9.92244C7.50536 9.92244 7.24894 7.53105 9.13865 6.82942C8.33916 8.6548 8.82634 9.55664 9.34846 10.5232C9.96167 11.6585 10.6231 12.8829 9.30453 15.7976C6.8633 21.1939 9.21888 24.0552 10.9988 24.0552C13.3438 24.0552 15.2754 19.0148 14.0979 14.614C13.3857 14.4542 12.6298 14.9454 12.403 15.7976C11.2692 14.7349 12.3275 12.8405 13.6881 12.5599C13.1834 12.0915 12.0902 11.9382 11.4204 12.5599C11.0441 11.6404 12.1007 10.163 13.8711 10.163C13.0431 9.4616 12.0823 9.42977 10.9669 9.82353C10.9669 8.67098 11.7462 7.64845 13.8392 7.64845C13.1603 6.92253 12.2519 6.58469 11.0407 6.93548C11.0407 6.00658 12.9187 5.17975 14.4697 5.67261C13.642 5.22537 13.6787 4.13473 14.4697 4C14.7068 4.36193 15.2086 4.59661 16.2082 4.59661H19.0866C19.0866 5.18277 19.7231 5.47344 20.9007 5.47344C22.0784 5.47344 21.8516 6.59603 21.1274 7.16848C21.1713 7.36784 21.0957 7.57835 20.9007 7.71862ZM27.8231 27.2827C27.8231 26.0197 29.9396 25.1778 31.1154 25.8975C30.5103 26.0532 30.3537 26.395 30.3229 26.7471C29.5008 26.7435 28.9787 26.9236 28.598 27.5044C29.3515 26.9989 31.7057 26.8608 31.9428 28.3995C31.3341 28.1197 30.9223 28.286 30.6044 28.6101C30.2204 28.2047 29.5581 28.0703 28.8856 28.3342C30.2161 28.467 31.0369 29.2601 30.6998 30.4339C30.464 29.827 29.9454 29.7131 29.4373 29.8193C29.4373 29.1874 28.845 28.752 28.1195 28.752C27.7294 29.2623 27.9617 29.9235 28.5349 30.2996C27.1728 30.4339 26.6207 29.6306 26.7964 28.4754C26.1474 28.752 25.9948 29.5084 26.452 30.2295C25.5163 30.2164 25.1219 29.1913 25.3585 28.2395C24.6486 28.752 24.5697 29.6306 25.0579 30.2295C23.8597 29.9967 23.4695 29.0329 24.0964 28.0198C23.2328 28.4471 23.0382 28.9745 23.0926 29.7383C22.2611 29.235 22.1396 28.3029 22.9131 27.5072C22.2032 27.5072 21.6564 27.8733 21.6564 28.4754C21.2029 27.6335 21.354 26.3004 22.2611 25.1076C21.4932 24.8712 20.8622 24.798 19.9179 24.9673C20.2311 23.4068 20.2311 21.8692 19.2376 20.2664C25.3287 20.2664 29.9396 23.4238 24.5728 26.0899C25.3857 27.182 26.4053 27.4381 27.8231 27.2827ZM25.5597 7.7002C24.4093 6.85712 24.3125 5.37138 25.3895 4.74784C25.3215 5.32724 25.6057 5.58878 25.9467 5.74568C25.3895 6.2629 25.6261 6.97008 26.0667 7.5132C25.8394 6.67645 26.572 4.59512 28.1998 4.95989C27.8225 5.32724 27.8069 5.71804 28.0137 6.11206C27.3719 6.26851 26.8839 6.91705 27.0035 7.57223C27.6287 6.47393 28.7262 6.05942 29.7763 6.78444C28.9779 6.78444 28.5298 7.03928 28.5298 7.62816C27.6268 7.51958 27.177 7.95839 27.0524 8.49571C27.6461 8.90907 27.9617 8.90907 28.6807 8.62136C28.3561 9.47796 27.8039 9.7877 26.5989 9.47796C26.9362 10.0074 27.5673 10.1538 28.2766 9.95253C27.8828 10.6663 26.8573 10.6663 25.9942 10.3433C26.2632 10.9202 26.9362 11.078 27.713 10.9202C27.3696 11.4961 26.384 11.6914 25.3895 11.2086C25.5952 11.8379 26.2632 12.074 27.0984 11.9921C26.6402 12.521 25.5952 12.5701 24.7848 12.074C24.7848 12.7165 25.4374 13.064 26.2632 13.064C25.8578 14.2324 23.5146 14.3026 22.7423 13.6692C22.9388 12.6399 22.6257 11.5831 22.1883 11.078C24.4394 11.078 25.5597 9.84827 25.5597 7.7002ZM18.782 5.62983L18.3799 5.25655L17.9778 5.62983L18.3799 6.00303L18.782 5.62983Z" fill="#181817"/>
<path d="M57.3666 14L54.2368 14V27H57.3666V31.5H46.6001V27H49.7299V14H46.6001V9.5L57.3666 9.5V14Z" fill="white"/>
<path d="M68.1026 27H69.8857V31.5H59.1193V27H61.729L58.407 23.6831L58.3814 23.7085L55.1934 20.5256L61.7291 14L59.1193 14V9.5L69.8857 9.5V14H68.1032L61.5926 20.5001L68.1026 27Z" fill="white"/>
<path d="M138.665 14H135.536V9.5L155.692 9.5V17.125H151.185V14L143.172 14V18.25H145.551V16.375L148.806 16.375V24.625H145.551V22.75H143.172V27L151.185 27V23.875L155.692 23.875V31.5L135.536 31.5V27H138.665V14Z" fill="white"/>
<path fill-rule="evenodd" clip-rule="evenodd" d="M130.862 20.5L133.783 23.4161V28.2089L130.487 31.5L113.001 31.5V27H116.131V14H113.001V9.5L130.487 9.5L133.783 12.7911V17.5839L130.862 20.5ZM129.276 14L120.638 14V18.25H129.276V14ZM129.276 22.75H120.638V27L129.276 27V22.75Z" fill="white"/>
<path d="M103.587 14.0732H100.458V9.5L111.224 9.5V14.0732H108.094V27.0732H111.224V31.5H105.24L95.5751 19.0743V27.0732H98.7049V31.5H87.9384V27.0732H91.0682V14.0732H87.9384V9.5H88.2307H88.1785H93.9219L103.587 22.073V14.0732Z" fill="white"/>
<path d="M76.6461 14H71.6384V9.5L86.1607 9.5V14L81.153 14V27H86.1607V31.5L71.6384 31.5V27H76.6461V14Z" fill="white"/>
<path d="M161.951 14V17.125H157.444V9.5L177.6 9.5V17.125H173.093V14L169.776 14V27H175.096V31.5L160.574 31.5V27H165.269V14H161.951Z" fill="white"/>
</svg>
