<svg width="126" height="32" viewBox="0 0 126 32" fill="none" xmlns="http://www.w3.org/2000/svg">
<mask id="mask0_38441_17889" style="mask-type:luminance" maskUnits="userSpaceOnUse" x="0" y="0" width="126" height="32">
<path d="M125.778 0H0V32H125.778V0Z" fill="white"/>
</mask>
<g mask="url(#mask0_38441_17889)">
<path d="M60.5808 11.1304L53.0803 31.9999H46.1568L38.6562 11.1304H44.4259L49.6186 27.5477L54.8112 11.1304H60.5808Z" fill="white"/>
<path d="M5.76963 27.5477H17.3089V31.9999H0V11.1304H5.76963V27.5477Z" fill="white"/>
<path d="M88.2752 27.5477H99.8141V31.9999H82.5054V11.1304H88.2752V27.5477Z" fill="white"/>
<path d="M25.3863 27.5477V23.4991H34.6177V19.6034H25.3863V15.5825H36.3486V11.1304H19.6167V31.9999H36.9256V27.5477H25.3863Z" fill="white"/>
<path d="M68.6588 27.5477V23.4991H77.8902V19.6034H68.6588V15.5825H79.6208V11.1304H62.8892V31.9999H80.1979V27.5477H68.6588Z" fill="white"/>
<path d="M120.585 5.56519H115.97H111.354V16.6956V21.9826H115.97V16.6956H120.585C123.456 16.6956 125.778 14.4556 125.778 11.6869V10.5739C125.778 7.80519 123.456 5.56519 120.585 5.56519ZM121.162 11.353C121.162 12.3965 120.283 13.2591 119.186 13.2591H115.97V8.80691H119.186C120.268 8.80691 121.162 9.65563 121.162 10.713V11.353Z" fill="#EA5B0C"/>
<path d="M104.431 5.56522V15.8609C104.431 17.0852 103.392 18.087 102.122 18.087H100.968C99.6987 18.087 98.6607 17.0852 98.6607 15.8609V10.8522V5.28696V0H82.5054L94.0451 7.94434V15.8609C94.0451 19.2418 96.8862 21.9826 100.391 21.9826H102.555C106.132 21.9826 109.046 19.1722 109.046 15.7218V5.56522H104.431Z" fill="#EA5B0C"/>
</g>
</svg>
