<svg width="174" height="130" viewBox="0 0 174 130" fill="none" xmlns="http://www.w3.org/2000/svg">
<path d="M0 58.8783V56.899H1.37338C3.90434 56.899 4.25357 54.8688 4.25357 52.6744V6.71241C4.25357 4.97954 4.25357 2.82422 0.86327 2.82422H0.086327V0.930976H16.5316V2.82422H15.4957C12.7018 2.82422 12.7018 4.97954 12.7018 6.71241V54.3681C12.7018 56.4726 14.036 56.4726 14.4755 56.4726H18.0463C20.9932 56.4726 25.4429 56.4726 26.7967 44.0766L26.8242 43.8379H28.8646V58.8744H0V58.8783Z" fill="url(#paint0_linear_17_7266)"/>
<path d="M50.3522 59.8092C42.8967 59.8092 34.005 57.2158 34.005 44.8706V6.79846C34.005 5.12427 34.005 2.82813 30.701 2.82813H29.8378V0.930976H45.9417V2.82422H45.1608C42.6612 2.82422 42.4533 4.78787 42.4533 6.79455V46.6504C42.4533 53.3746 45.2864 56.6408 51.1174 56.6408C56.0419 56.6408 59.0987 53.1047 59.0987 47.4132V7.98369C59.0987 5.43329 58.6945 2.82422 55.7084 2.82422H54.6725V0.930976H66.9505V2.82422H66.0009C63.6623 2.82422 62.5282 4.51014 62.5282 7.98369V48.0078C62.5282 54.9549 57.5213 59.8092 50.3483 59.8092H50.3522Z" fill="url(#paint1_linear_17_7266)"/>
<path d="M85.6992 59.8092C74.5513 59.8092 67.6529 43.9553 67.6529 29.267C67.6529 13.4053 76.0738 0 86.0406 0C87.2374 0 88.2262 0.352049 89.1758 0.692363C90.0116 0.989649 90.8043 1.27129 91.6519 1.27129C92.4994 1.27129 93.2371 1.27129 93.5197 0.277728L93.5746 0.0821448H95.4934V14.3558H93.555L93.5157 14.1367C92.0757 6.34862 89.5918 2.40176 86.123 2.40176C81.7439 2.40176 76.525 7.20918 76.525 30.1159C76.525 53.0225 80.033 57.3214 85.6992 57.3214C88.4852 57.3214 92.2483 55.5182 94.3712 46.9242L94.4222 46.7208H97.0669L97.0277 47.0259C96.4352 51.4461 93.3078 59.8092 85.7031 59.8092H85.6992Z" fill="url(#paint2_linear_17_7266)"/>
<path d="M120.689 58.8783V56.899H121.807C122.384 56.899 122.843 56.6956 123.098 56.3318C123.357 55.9602 123.381 55.4477 123.169 54.8884L114.179 29.9164L111.609 34.5126V52.6744C111.609 54.9862 111.845 56.899 114.74 56.899H115.604V58.8783H99.2447V56.899H100.194C102.933 56.899 103.157 54.9862 103.157 52.6744V6.71241C103.157 4.97954 103.157 2.82422 100.022 2.82422H99.2408V0.930976H115.6V2.82422H114.819C111.601 2.82422 111.601 4.97954 111.601 6.71241V28.2187C112.484 26.6149 113.481 24.8077 114.513 22.934C118.347 15.9909 122.694 8.11669 123.589 6.01613C123.856 5.39418 123.993 4.85828 123.993 4.42409C123.993 3.4227 123.267 2.82813 122.051 2.82813H120.505V0.930976H133.717V2.82422H133.446C129.51 2.82422 127.839 5.7032 126.367 8.24186L126.191 8.54306L119.28 20.7279L131.229 51.8999C132.963 56.5156 135.039 56.899 137.017 56.899H137.287V58.8783H120.673H120.689Z" fill="url(#paint3_linear_17_7266)"/>
<path d="M146.238 58.8783V56.899H147.866C150.295 56.676 150.488 54.9314 150.488 52.6744V34.5751L139.956 5.78925C139.253 3.94686 138.61 2.82813 135.616 2.82813H135.008V0.930976H152.815V2.82422H150.845C150.201 2.82422 149.699 3.04718 149.389 3.46182C149.063 3.89992 148.969 4.5297 149.146 5.10471L157.06 28.9345L165.308 5.09298C165.501 4.55317 165.446 4.05248 165.151 3.63784C164.787 3.12542 164.084 2.82031 163.268 2.82031H161.467V0.930976H174V2.82422H173.137C171.442 2.82422 169.405 3.69652 168.797 5.36288L158.948 32.5372V52.6705C158.948 54.9275 159.175 56.6721 162.016 56.899H163.625V58.8744H146.246L146.238 58.8783Z" fill="url(#paint4_linear_17_7266)"/>
<path d="M89.6741 129.026L67.7392 85.7044V122.568C67.7392 125.623 68.9243 127.047 71.467 127.047H72.4166V129.026H59.7971V127.047H60.8331C63.7878 127.047 64.3921 125.255 64.3921 122.568V80.0012C64.3921 75.2094 63.2345 72.9758 60.7467 72.9758H59.5421V71.0826H70.3565L89.1444 109.366V79.3205C89.1444 76.3672 88.7677 72.9758 85.8404 72.9758H84.2944V71.0826H97.2513V72.9758H95.8779C93.5981 72.9758 92.4876 75.0529 92.4876 79.3205V129.026H89.6702H89.6741Z" fill="url(#paint5_linear_17_7266)"/>
<path d="M98.4677 129.026V127.047H99.8411C102.372 127.047 102.721 125.017 102.721 122.822V76.864C102.721 75.1312 102.721 72.9758 99.6724 72.9758H98.4677V71.0826H126.567V84.5074H124.523L124.499 84.2649C123.542 74.7087 119.276 73.4844 115.666 73.4844H111.174V97.8774H113.371C116.075 97.8774 118.802 96.2815 118.802 92.718V90.5822H121.042V108.842H118.802V105.861C118.802 102.626 116.518 100.279 113.371 100.279H111.174V124.516C111.174 126.62 112.508 126.62 112.947 126.62H116.777C119.724 126.62 124.174 126.62 125.527 114.224L125.555 113.986H127.595V129.022H98.4756L98.4677 129.026Z" fill="url(#paint6_linear_17_7266)"/>
<path d="M143.009 129.961C140.729 129.961 138.013 129.523 135.616 129.139C134.282 128.924 133.022 128.721 131.919 128.604L131.68 128.576V113.99H133.728L133.748 114.236C134.133 119.321 136.989 127.387 143.005 127.387C148.2 127.387 150.052 123.319 150.052 119.513C150.052 112.546 145.469 107.77 140.619 102.712C135.722 97.6076 130.66 92.3268 130.66 84.5739C130.66 76.3477 136.699 70.1438 144.712 70.1438C148.447 70.1438 152.481 70.977 154.043 71.3369L154.251 71.3838V83.3144H152.124L152.1 83.0718C151.857 80.6427 150.558 72.7138 144.119 72.7138C139.603 72.7138 137.24 76.7584 137.24 80.7561C137.24 86.5923 141.529 91.0047 146.069 95.6752C151.139 100.893 156.381 106.288 156.381 114.248C156.381 122.208 151.79 129.949 143.012 129.949L143.009 129.961Z" fill="url(#paint7_linear_17_7266)"/>
<path d="M32.0587 70.1908C16.2295 70.1908 4.29278 82.9193 4.29278 99.7981C4.29278 107.383 6.93753 114.909 11.5482 120.456C16.7396 126.699 23.8341 130 32.0587 130C40.2833 130 47.3464 126.554 52.5182 120.295C57.1602 114.682 59.8207 107.211 59.8207 99.7981C59.8207 82.6416 48.143 70.1908 32.0548 70.1908H32.0587ZM50.6426 95.4914C54.3115 110.199 48.9631 124.183 38.698 126.726C28.433 129.269 17.1398 119.407 13.4748 104.703C9.80594 89.9955 15.1543 76.0113 25.4194 73.4687C35.6844 70.9261 46.9776 80.7874 50.6426 95.4914Z" fill="url(#paint8_linear_17_7266)"/>
<path d="M164.41 118.95C161.49 118.95 159.116 121.316 159.116 124.226C159.116 127.137 161.49 129.503 164.41 129.503C167.329 129.503 169.703 127.137 169.703 124.226C169.703 121.316 167.329 118.95 164.41 118.95ZM164.41 128.607C161.989 128.607 160.015 126.644 160.015 124.226C160.015 121.809 161.985 119.845 164.41 119.845C166.835 119.845 168.805 121.809 168.805 124.226C168.805 126.644 166.835 128.607 164.41 128.607Z" fill="url(#paint9_linear_17_7266)"/>
<path d="M164.547 121.918C165.771 121.918 166.435 122.423 166.435 123.295C166.435 123.886 166.18 124.258 165.744 124.383V124.398C166.203 124.504 166.407 124.868 166.407 125.388V126.542H165.25V125.423C165.25 125.001 165.097 124.821 164.657 124.821H163.535V126.542H162.377V121.918H164.547ZM164.594 124.125C165.081 124.125 165.328 123.906 165.328 123.479C165.328 123.053 165.073 122.826 164.539 122.826H163.539V124.125H164.594Z" fill="url(#paint10_linear_17_7266)"/>
<defs>
<linearGradient id="paint0_linear_17_7266" x1="4.39852e-08" y1="107.69" x2="151.379" y2="16.7927" gradientUnits="userSpaceOnUse">
<stop offset="0.100754" stop-color="#BA9D64"/>
<stop offset="0.528017" stop-color="#FBE3AF"/>
<stop offset="0.961207" stop-color="#BA9D64"/>
</linearGradient>
<linearGradient id="paint1_linear_17_7266" x1="4.39852e-08" y1="107.69" x2="151.379" y2="16.7927" gradientUnits="userSpaceOnUse">
<stop offset="0.100754" stop-color="#BA9D64"/>
<stop offset="0.528017" stop-color="#FBE3AF"/>
<stop offset="0.961207" stop-color="#BA9D64"/>
</linearGradient>
<linearGradient id="paint2_linear_17_7266" x1="4.39852e-08" y1="107.69" x2="151.379" y2="16.7927" gradientUnits="userSpaceOnUse">
<stop offset="0.100754" stop-color="#BA9D64"/>
<stop offset="0.528017" stop-color="#FBE3AF"/>
<stop offset="0.961207" stop-color="#BA9D64"/>
</linearGradient>
<linearGradient id="paint3_linear_17_7266" x1="4.39852e-08" y1="107.69" x2="151.379" y2="16.7927" gradientUnits="userSpaceOnUse">
<stop offset="0.100754" stop-color="#BA9D64"/>
<stop offset="0.528017" stop-color="#FBE3AF"/>
<stop offset="0.961207" stop-color="#BA9D64"/>
</linearGradient>
<linearGradient id="paint4_linear_17_7266" x1="4.39852e-08" y1="107.69" x2="151.379" y2="16.7927" gradientUnits="userSpaceOnUse">
<stop offset="0.100754" stop-color="#BA9D64"/>
<stop offset="0.528017" stop-color="#FBE3AF"/>
<stop offset="0.961207" stop-color="#BA9D64"/>
</linearGradient>
<linearGradient id="paint5_linear_17_7266" x1="4.39852e-08" y1="107.69" x2="151.379" y2="16.7927" gradientUnits="userSpaceOnUse">
<stop offset="0.100754" stop-color="#BA9D64"/>
<stop offset="0.528017" stop-color="#FBE3AF"/>
<stop offset="0.961207" stop-color="#BA9D64"/>
</linearGradient>
<linearGradient id="paint6_linear_17_7266" x1="4.39852e-08" y1="107.69" x2="151.379" y2="16.7927" gradientUnits="userSpaceOnUse">
<stop offset="0.100754" stop-color="#BA9D64"/>
<stop offset="0.528017" stop-color="#FBE3AF"/>
<stop offset="0.961207" stop-color="#BA9D64"/>
</linearGradient>
<linearGradient id="paint7_linear_17_7266" x1="4.39852e-08" y1="107.69" x2="151.379" y2="16.7927" gradientUnits="userSpaceOnUse">
<stop offset="0.100754" stop-color="#BA9D64"/>
<stop offset="0.528017" stop-color="#FBE3AF"/>
<stop offset="0.961207" stop-color="#BA9D64"/>
</linearGradient>
<linearGradient id="paint8_linear_17_7266" x1="4.39852e-08" y1="107.69" x2="151.379" y2="16.7927" gradientUnits="userSpaceOnUse">
<stop offset="0.100754" stop-color="#BA9D64"/>
<stop offset="0.528017" stop-color="#FBE3AF"/>
<stop offset="0.961207" stop-color="#BA9D64"/>
</linearGradient>
<linearGradient id="paint9_linear_17_7266" x1="4.39852e-08" y1="107.69" x2="151.379" y2="16.7927" gradientUnits="userSpaceOnUse">
<stop offset="0.100754" stop-color="#BA9D64"/>
<stop offset="0.528017" stop-color="#FBE3AF"/>
<stop offset="0.961207" stop-color="#BA9D64"/>
</linearGradient>
<linearGradient id="paint10_linear_17_7266" x1="4.39852e-08" y1="107.69" x2="151.379" y2="16.7927" gradientUnits="userSpaceOnUse">
<stop offset="0.100754" stop-color="#BA9D64"/>
<stop offset="0.528017" stop-color="#FBE3AF"/>
<stop offset="0.961207" stop-color="#BA9D64"/>
</linearGradient>
</defs>
</svg>
