<svg width="160" height="40" fill="none" xmlns="http://www.w3.org/2000/svg"><path d="M57.016 10.174h6.722v23.608H77.6V40H57.016V10.174ZM95.832 39.412v-2.185c-1.512 1.597-3.78 2.605-6.469 2.605-5.21 0-8.654-3.613-8.654-8.99V17.063h6.05V29.75c0 2.688 1.512 4.453 4.116 4.453 2.94 0 4.957-1.849 4.957-4.957V17.063h6.049v22.349H95.832ZM119.021 17.063h6.89l-8.57 11.09 8.906 11.258h-7.562l-7.141-9.157v9.157h-6.134V9.586h6.134V27.06l7.393-9.998h.084ZM143.218 17.063h6.889l-8.57 11.09 8.906 11.258h-7.561l-7.142-9.157v9.157h-6.133V9.586h6.133V27.06l7.394-9.998h.084ZM153.048 39.412V17.063h6.049v22.349h-6.049Zm6.553-27.726c0 1.933-1.596 3.53-3.529 3.53-1.932 0-3.528-1.597-3.528-3.53 0-1.932 1.596-3.528 3.528-3.528 1.933 0 3.529 1.596 3.529 3.528Z" fill="#F1F1F2"/><mask id="mask0_2146_390" style="mask-type:luminance" maskUnits="userSpaceOnUse" x="0" y="0" width="46" height="40"><path d="M28.769.038c-2.396 0-4.504 1.208-5.789 3.029A7.005 7.005 0 0 0 17.192.038a7.026 7.026 0 0 0-7.034 7.034c0 2.914 4.236 7.686 6.593 10.178 0 0-.594-.422-1.188-.882-.575-.44-1.17-.9-1.188-.882-2.262-1.936-4.792-3.45-7.341-3.45A7.026 7.026 0 0 0 0 19.07a7.054 7.054 0 0 0 3.028 5.789A7.004 7.004 0 0 0 0 30.647c0 3.89 2.817 6.152 6.689 6.152 3.105 0 6.536-1.341 9.142-3.91v.058s3.7-3.642 5.118-4.62v-.038c.172-.115.364-.249.536-.402C19.856 34.346 15.141 40 15.141 40h15.62s-4.733-5.596-6.362-12.132c.191.153.383.287.594.421 1.418.997 5.098 4.658 5.098 4.658v-.039c2.607 2.569 5.347 3.891 8.452 3.891 3.853 0 7.322-2.242 7.38-6.075v-.192a7.054 7.054 0 0 0-3.029-5.692 7.054 7.054 0 0 0 3.028-5.693v-.192c-.057-3.833-3.181-6.938-7.034-6.938-2.549 0-6.823 3.124-9.084 5.06-.02-.038 1.705-1.667 1.686-1.706 2.358-2.491 4.313-5.424 4.313-8.337A7.026 7.026 0 0 0 28.769 0v.038Z" fill="#fff"/></mask><g mask="url('#mask0_2146_390')"><path d="m30.905-21.526-49.657 34.641 33.797 48.447L64.702 26.92 30.905-21.526Z" fill="url('#paint0_linear_2146_390')"/></g><defs><linearGradient id="paint0_linear_2146_390" x1="11.028" y1="6.404" x2="48.145" y2="59.609" gradientUnits="userSpaceOnUse"><stop stop-color="#EAD096"/><stop offset=".16" stop-color="#D9BD7A"/><stop offset=".32" stop-color="#CBAE64"/><stop offset=".5" stop-color="#C2A354"/><stop offset=".7" stop-color="#BC9C4B"/><stop offset="1" stop-color="#BB9B49"/></linearGradient></defs></svg>