<svg xmlns="http://www.w3.org/2000/svg" width="148" height="17" fill="#fff" fill-rule="evenodd"><path d="M37.984.124h-4.869v8.414a3.22 3.22 0 0 1-3.221 3.221H25.51a3.22 3.22 0 0 1-3.208-3.221V.124h-4.869v9.434c0 3.46 2.728 6.283 6.151 6.435V16h.274.018 7.959v-.006c3.423-.152 6.151-2.975 6.151-6.435V.124zm-33.115 0H0v9.434C0 13.116 2.884 16 6.442 16h7.959v-4.241H8.09a3.22 3.22 0 0 1-3.221-3.221V.124zM45.885 16h-4.869V6.566c0-3.46 2.728-6.283 6.15-6.435V.124h.292 7.667.292V.13c3.422.152 6.15 2.975 6.15 6.435V16h-4.869V7.587a3.22 3.22 0 0 0-3.221-3.221h-4.371a3.22 3.22 0 0 0-3.221 3.221V16zm90.276.202h4.869V6.326a6 6 0 0 0-6-6h-6.23v4.241h7.361v11.635zM80.482.326h4.869V9.76c0 3.46-2.728 6.283-6.151 6.435v.007h-7.959-.017-.274v-.006c-3.422-.153-6.15-2.976-6.15-6.436V.326h4.869V8.74a3.22 3.22 0 0 0 3.209 3.221h4.384a3.22 3.22 0 0 0 3.221-3.221V.326zm61.918 2.4a2.4 2.4 0 0 1 4.8 0 2.4 2.4 0 0 1-4.8 0zM125.2.512v4.069h-7.338c-1.079 0-2.034.53-2.618 1.345h4.986v4h-5.445a3.22 3.22 0 0 0 3.077 2.268h7.614v4.069h-9.434c-3.46 0-6.283-2.728-6.436-6.151h-.006v-.281-.01-2.359-.509c0-3.558 2.884-6.442 6.442-6.442h9.158zM88 1.6v2.481V10.4h4.8V4.081h3.429 4.434c.758 0 1.372.457 1.372 1.02s-.614 1.02-1.372 1.02h-4.434-1.6v4.081h1.6 4.434c.758 0 1.372.457 1.372 1.02s-.614 1.02-1.372 1.02H87.886v4.082h13.424c3.941 0 5.89-2.486 5.89-5.102 0-1.102-.346-2.181-1.041-3.061.695-.88 1.041-1.959 1.041-3.061 0-2.616-1.949-5.102-5.89-5.102h-.245-4.836H88v1.6z"/></svg>
