<?xml version="1.0" encoding="UTF-8"?> <svg xmlns="http://www.w3.org/2000/svg" width="3475" height="1617" viewBox="0 0 3475 1617" fill="none"><path d="M1344.66 1227.64C1435.07 925.042 1318.34 548.977 1097.83 298.147C868.259 37.1412 479.714 -122.189 209.634 118.716C-116.013 409.135 -3.37468 1100.32 449.742 1443.04C841.716 1739.59 1235.7 1592.28 1344.68 1227.62L1344.66 1227.64Z" fill="#FFBC0D"></path><path d="M1308.14 1191.98C1395.96 913.327 1287.9 561.295 1080.83 328.112C864.444 84.4747 507.264 -50.6842 268.271 175.975C-13.3235 443.086 87.3258 1057.18 490.648 1370.8C843.143 1644.88 1204.17 1521.79 1308.14 1191.98Z" fill="#232634"></path><path d="M1057.71 951.408C1109.12 834.538 1065.24 661.185 959.127 550.337C847.715 433.913 695.375 414.564 617.477 521.621C531.047 640.387 574.596 855.002 715.728 981.769C848.803 1101.34 1001.25 1079.76 1057.71 951.408Z" fill="#FFBC0D"></path><path d="M604.122 398.507C604.122 398.507 647.56 372.663 763.404 388.889C869.658 403.804 922.436 434.165 922.436 434.165C922.436 434.165 874.091 388.247 759.278 371.38C633.202 352.841 604.094 398.507 604.094 398.507H604.122ZM579.699 339.347C581.65 338.148 627.849 310.994 749.882 330.788C863.608 349.244 919.592 384.093 919.592 384.093C919.592 384.093 866.061 331.262 745.198 310.743C614.02 288.495 580.507 338.092 579.699 339.347ZM553.296 287.659C555.303 286.293 604.038 254.594 737.838 278.793C861.349 301.236 921.348 341.996 921.348 341.996C921.348 341.996 863.747 280.131 732.262 255.124C588.314 227.802 554.132 286.209 553.296 287.659ZM525.973 234.549V234.465C525.954 234.483 525.935 234.502 525.917 234.521L525.973 234.549ZM525.973 234.493C528.036 232.96 579.28 196.103 725.236 225.404C858.924 252.308 923.105 299.619 923.105 299.619C923.105 299.619 861.293 227.746 718.684 197.609C561.437 164.376 526.809 232.792 525.973 234.493ZM492.153 176.504C492.153 176.504 548.528 129.722 711.24 165.993C858.645 198.807 928.263 255.291 928.263 255.291C928.263 255.291 860.792 169.004 703.238 131.981C525.164 90.1617 492.181 176.532 492.181 176.532L492.153 176.504ZM938.077 1146.76C1052.64 1127.75 1079.71 1075.92 1079.71 1075.92C1079.71 1075.92 1039.59 1110.07 933.532 1126.69C820.002 1144.61 760.951 1116.73 758.191 1115.37C760.839 1117.88 814.593 1167.28 938.077 1146.76ZM759.975 1183.37L760.087 1183.42C760.049 1183.39 760.012 1183.39 759.975 1183.37ZM954.192 1217.38C1074.69 1193.65 1103.63 1132.68 1103.63 1132.68C1103.63 1132.68 1062.29 1172.72 948.867 1193.85C826.471 1216.76 763.042 1184.95 760.087 1183.42C762.958 1186.21 823.822 1243.05 954.192 1217.38ZM756.155 1244.14C756.155 1244.14 822.511 1316.85 969.275 1283.67C1100.26 1254.04 1128.72 1181.19 1128.72 1181.19C1128.72 1181.19 1086.01 1228.86 962.918 1255.18C825.467 1284.65 756.155 1244.14 756.155 1244.14ZM751.973 1308.1C751.973 1308.1 824.602 1395.44 985.139 1353.99C1127.11 1317.35 1154.35 1231.12 1154.35 1231.12C1154.35 1231.12 1110.57 1287.55 977.416 1319.83C827.307 1356.19 751.945 1308.07 751.945 1308.07L751.973 1308.1ZM742.828 1379.47C742.828 1379.47 823.905 1489.31 1003.79 1436.2C1160.31 1390.03 1185.35 1284.15 1185.35 1284.15C1185.35 1284.15 1140.69 1352.96 994.089 1393.32C829.956 1438.57 742.828 1379.47 742.828 1379.47Z" fill="#EE3A4C"></path><path d="M886.86 779.589C898.626 757.843 890.485 723.189 868.654 701.499C846.824 679.809 818.469 678.888 805.783 700.272C792.874 722.074 801.043 758.121 824.017 780.286C846.991 802.45 874.899 801.641 886.86 779.589Z" fill="#232634"></path><path d="M1421.81 881.544C1579.89 858.794 1795.55 726.116 1824.12 525.58C1843.92 390.171 1774.36 309.739 1663.09 282.194C1548.89 254.036 1433.18 282.891 1326.01 323.985C1123.54 403.33 957.482 555.802 972.454 699.101C985.558 824.725 1132.1 845.97 1110.85 823.778C1110.85 823.778 1017.26 710.643 1154.29 584.712C1271.03 477.015 1513.39 327.163 1676.39 409.909C1718.21 431.599 1750.41 469.487 1734.49 537.178C1696.29 697.094 1493.07 776.494 1380.82 790.88C1375.86 791.215 1370.92 792.218 1365.96 792.497C1385.65 717.211 1410.52 643.378 1440.4 571.526C1456.77 531.833 1479.05 494.846 1506.48 461.821C1532.52 433.3 1540.44 411.554 1522.54 409.045C1411.07 390.031 1305.63 580.837 1260.74 768.855C1253.38 763.089 1247.15 755.998 1242.39 747.946C1242.39 747.946 1235.01 731.358 1226.61 745.994C1222.07 753.382 1224.38 792.302 1248.53 827.123C1223.18 975.608 1241.03 1108.09 1329.55 1112.13C1332.42 1112.66 1353.81 1113.53 1345.44 1104.08C1319.4 1072.93 1323.3 995.291 1339.47 907.694C1375.33 1056.15 1537.71 1272.47 1670.78 1295.91C1739.81 1308.18 1794.1 1275.17 1802.57 1202.24C1804.08 1191.51 1798.39 1179.77 1789.64 1188.1C1774.78 1199.53 1755.06 1202.6 1737.44 1196.13C1646.97 1160.25 1479.74 1053.56 1421.81 881.544ZM2636.9 480.723C2664.06 481.977 2692.33 468.261 2699.8 450.055C2707.25 431.906 2691.35 415.764 2663.5 414.565C2636.34 413.311 2608.02 427.055 2600.55 445.232C2593.1 463.438 2608.99 479.552 2636.82 480.751L2636.9 480.723ZM3169.59 510.554C3184.65 511.808 3197.14 530.961 3186.04 560.736C3181.8 575.624 3172.16 588.337 3158.97 596.422C3119.68 619.339 3156.1 632.107 3183.14 619.84C3176 679.223 3164.88 743.792 3104.94 765.092C3074.94 775.351 3046.47 763.53 3054.11 712.679C3062.94 660.926 3080.7 611.1 3106.58 565.42C3131.25 525.608 3155.2 509.299 3169.53 510.581L3169.59 510.554ZM3135.58 931.559C3132.43 932.166 3129.18 932.006 3126.1 931.092C3123.03 930.178 3120.22 928.538 3117.91 926.31C3115.6 924.082 3113.86 921.331 3112.84 918.29C3111.82 915.249 3111.55 912.006 3112.04 908.837C3110.4 869.193 3141.1 834.734 3165.02 806.325C3156.85 872.12 3146.06 930.277 3135.46 931.615L3135.58 931.559ZM2017.92 612.229C2023.56 629.793 2025.62 648.249 2023.95 666.594C1979.84 667.04 1951.57 610.473 1968.02 588.197C1985.14 564.472 2011.09 594.191 2017.87 612.257L2017.92 612.229ZM1891.57 677.885C1901.12 699.207 1917.49 716.748 1938.1 727.746C1958.72 738.744 1982.4 742.574 2005.43 738.634H2006.16C1988.37 782.436 1954.19 817.566 1910.89 836.546C1868.85 847.559 1857.08 817.7 1860.7 782.683C1865.81 746.44 1876.18 711.145 1891.48 677.913L1891.57 677.885ZM3262.82 715.327C3295.36 675.766 3376.49 626.281 3420.54 601.217L3399.91 577.603C3358.97 593.978 3319.2 613.158 3280.89 635.007C3289.37 596.617 3300.69 558.924 3314.77 522.235C3329.49 482.312 3344.68 486.382 3334.09 476.346C3295.72 441.664 3237.68 470.63 3229.78 481.754C3220.05 474.009 3208.81 468.379 3196.77 465.222C3096.6 444.814 3006.29 530.292 2971 631.159C2961.71 655.331 2955.33 680.506 2951.95 706.155C2950.34 719.537 2950.28 733.058 2951.84 746.468C2940.94 760.77 2925.52 771.002 2908.07 775.463C2864.35 782.293 2877.96 664.224 2961.88 530.822C2997.01 474.784 2965.25 468.121 2927.31 476.039C2847.09 492.097 2814.5 542.308 2765.52 604.841C2776.25 581.534 2787.71 558.757 2797.86 537.596C2805.25 525.107 2809.29 510.944 2809.62 496.419C2806.61 469.627 2665.9 497.757 2690.66 519.001C2698.18 525.692 2696.51 533.582 2691.02 548.832C2675.24 589.285 2610.81 704.482 2615.18 785.583C2609.13 789.742 2602.24 792.521 2595 793.724C2551.25 800.526 2564.89 682.485 2648.78 549.083C2669.63 516.603 2683.46 498.036 2664.84 496.307C2581.64 485.602 2540.66 538.405 2502.91 622.266C2486.83 658.011 2475.44 695.68 2469 734.341V734.424C2449.66 765.649 2421.69 801.892 2394.48 805.461C2353.55 811.427 2368.41 738.104 2393.78 662.05C2445.17 597.593 2511.77 502.524 2538.48 443.95C2544.76 430.177 2577.13 372.3 2529.26 354.402C2371 327.47 2283.15 645.796 2268.51 746.106C2267.66 752.581 2267.11 759.094 2266.87 765.621C2249.08 790.573 2227.17 813.657 2205.73 816.473C2164.8 822.439 2179.66 749.117 2205.03 673.062C2259.9 604.2 2332.11 500.489 2354.61 443.56C2352.46 448.996 2387.68 377.067 2340.5 365.386C2227.03 346.066 2149.72 504.42 2109.68 632.498C2101.79 636.958 2093.84 641.28 2086.12 645.211C2084.65 614.682 2072.32 585.684 2051.35 563.441C2039.67 551.62 2025.35 542.726 2009.58 537.485C1993.8 532.243 1977.01 530.8 1960.57 533.275C1892.52 537.987 1779.74 627.675 1758.58 775.937C1746.09 864.732 1813.28 929.691 1883.76 917.731V918.428C1972.23 909.702 2057.93 806.66 2080.49 707.326C2083.94 705.291 2087.4 703.144 2090.8 700.997C2086.33 719.532 2082.62 738.246 2079.71 757.09C2069.28 832.978 2100.7 930.555 2193.18 893.894C2225.89 877.924 2253.37 852.976 2272.42 821.965C2285.24 871.312 2319.73 907.499 2381.96 882.798C2417.12 868.97 2447.01 833.563 2469.31 798.63C2480.07 859.798 2522.65 894.535 2582.48 871.033C2601.13 862.997 2617.88 851.123 2631.63 836.184C2639.62 845.835 2649.49 853.753 2660.65 859.453C2671.81 865.153 2684.01 868.515 2696.51 869.332C2699.41 869.834 2720.1 870.782 2713.82 861.192C2674.93 803.816 2742.4 647.162 2806.7 627.061C2794.84 655.516 2786.57 685.334 2782.08 715.829C2767.97 813.964 2816.96 883.551 2895.58 852.633C2923.73 839.446 2947.88 819.021 2965.56 793.445C2988.31 838.275 3033.92 859.073 3079.2 835.459C3012.06 915.389 3057.18 1015.73 3133.01 1010.54C3228.08 1004.3 3244.17 856.313 3262.82 715.299V715.327Z" fill="#FFBC0D"></path><path d="M1421.81 881.544C1579.89 858.794 1795.55 726.116 1824.12 525.58C1843.92 390.171 1774.36 309.739 1663.09 282.194C1548.89 254.036 1433.18 282.891 1326.01 323.985C1123.54 403.33 957.482 555.802 972.454 699.101C985.558 824.725 1132.1 845.97 1110.85 823.778C1110.85 823.778 1017.26 710.643 1154.29 584.712C1271.03 477.015 1513.39 327.163 1676.39 409.909C1718.21 431.599 1750.41 469.487 1734.49 537.178C1696.29 697.094 1493.07 776.494 1380.82 790.88C1375.86 791.215 1370.92 792.218 1365.96 792.497C1385.65 717.211 1410.52 643.378 1440.4 571.526C1456.77 531.833 1479.05 494.846 1506.48 461.821C1532.52 433.3 1540.44 411.554 1522.54 409.045C1411.07 390.031 1305.63 580.837 1260.74 768.855C1253.38 763.089 1247.15 755.998 1242.39 747.946C1242.39 747.946 1235.01 731.358 1226.61 745.994C1222.07 753.382 1224.38 792.302 1248.53 827.123C1223.18 975.608 1241.03 1108.09 1329.55 1112.13C1332.42 1112.66 1353.81 1113.53 1345.44 1104.08C1319.4 1072.93 1323.3 995.291 1339.47 907.694C1375.33 1056.15 1537.71 1272.47 1670.78 1295.91C1739.81 1308.18 1794.1 1275.17 1802.57 1202.24C1804.08 1191.51 1798.39 1179.77 1789.64 1188.1C1774.78 1199.53 1755.06 1202.6 1737.44 1196.13C1646.97 1160.25 1479.74 1053.56 1421.81 881.544ZM2636.9 480.723C2664.06 481.977 2692.33 468.261 2699.8 450.055C2707.25 431.906 2691.35 415.764 2663.5 414.565C2636.34 413.311 2608.02 427.055 2600.55 445.232C2593.1 463.438 2608.99 479.552 2636.82 480.751L2636.9 480.723ZM3169.59 510.554C3184.65 511.808 3197.14 530.961 3186.04 560.736C3181.8 575.624 3172.16 588.337 3158.97 596.422C3119.68 619.339 3156.1 632.107 3183.14 619.84C3176 679.223 3164.88 743.792 3104.94 765.092C3074.94 775.351 3046.47 763.53 3054.11 712.679C3062.94 660.926 3080.7 611.1 3106.58 565.42C3131.25 525.608 3155.2 509.299 3169.53 510.581L3169.59 510.554ZM3135.58 931.559C3132.43 932.166 3129.18 932.006 3126.1 931.092C3123.03 930.178 3120.22 928.538 3117.91 926.31C3115.6 924.082 3113.86 921.331 3112.84 918.29C3111.82 915.249 3111.55 912.006 3112.04 908.837C3110.4 869.193 3141.1 834.734 3165.02 806.325C3156.85 872.12 3146.06 930.277 3135.46 931.615L3135.58 931.559ZM2017.92 612.229C2023.56 629.793 2025.62 648.249 2023.95 666.594C1979.84 667.04 1951.57 610.473 1968.02 588.197C1985.14 564.472 2011.09 594.191 2017.87 612.257L2017.92 612.229ZM1891.57 677.885C1901.12 699.207 1917.49 716.748 1938.1 727.746C1958.72 738.744 1982.4 742.574 2005.43 738.634H2006.16C1988.37 782.436 1954.19 817.566 1910.89 836.546C1868.85 847.559 1857.08 817.7 1860.7 782.683C1865.81 746.44 1876.18 711.145 1891.48 677.913L1891.57 677.885ZM3262.82 715.327C3295.36 675.766 3376.49 626.281 3420.54 601.217L3399.91 577.603C3358.97 593.978 3319.2 613.158 3280.89 635.007C3289.37 596.617 3300.69 558.924 3314.77 522.235C3329.49 482.312 3344.68 486.382 3334.09 476.346C3295.72 441.664 3237.68 470.63 3229.78 481.754C3220.05 474.009 3208.81 468.379 3196.77 465.222C3096.6 444.814 3006.29 530.292 2971 631.159C2961.71 655.331 2955.33 680.506 2951.95 706.155C2950.34 719.537 2950.28 733.058 2951.84 746.468C2940.94 760.77 2925.52 771.002 2908.07 775.463C2864.35 782.293 2877.96 664.224 2961.88 530.822C2997.01 474.784 2965.25 468.121 2927.31 476.039C2847.09 492.097 2814.5 542.308 2765.52 604.841C2776.25 581.534 2787.71 558.757 2797.86 537.596C2805.25 525.107 2809.29 510.944 2809.62 496.419C2806.61 469.627 2665.9 497.757 2690.66 519.001C2698.18 525.692 2696.51 533.582 2691.02 548.832C2675.24 589.285 2610.81 704.482 2615.18 785.583C2609.13 789.742 2602.24 792.521 2595 793.724C2551.25 800.526 2564.89 682.485 2648.78 549.083C2669.63 516.603 2683.46 498.036 2664.84 496.307C2581.64 485.602 2540.66 538.405 2502.91 622.266C2486.83 658.011 2475.44 695.68 2469 734.341V734.424C2449.66 765.649 2421.69 801.892 2394.48 805.461C2353.55 811.427 2368.41 738.104 2393.78 662.05C2445.17 597.593 2511.77 502.524 2538.48 443.95C2544.76 430.177 2577.13 372.3 2529.26 354.402C2371 327.47 2283.15 645.796 2268.51 746.106C2267.66 752.581 2267.11 759.094 2266.87 765.621C2249.08 790.573 2227.17 813.657 2205.73 816.473C2164.8 822.439 2179.66 749.117 2205.03 673.062C2259.9 604.2 2332.11 500.489 2354.61 443.56C2352.46 448.996 2387.68 377.067 2340.5 365.386C2227.03 346.066 2149.72 504.42 2109.68 632.498C2101.79 636.958 2093.84 641.28 2086.12 645.211C2084.65 614.682 2072.32 585.684 2051.35 563.441C2039.67 551.62 2025.35 542.726 2009.58 537.485C1993.8 532.243 1977.01 530.8 1960.57 533.275C1892.52 537.987 1779.74 627.675 1758.58 775.937C1746.09 864.732 1813.28 929.691 1883.76 917.731V918.428C1972.23 909.702 2057.93 806.66 2080.49 707.326C2083.94 705.291 2087.4 703.144 2090.8 700.997C2086.33 719.532 2082.62 738.246 2079.71 757.09C2069.28 832.978 2100.7 930.555 2193.18 893.894C2225.89 877.924 2253.37 852.976 2272.42 821.965C2285.24 871.312 2319.73 907.499 2381.96 882.798C2417.12 868.97 2447.01 833.563 2469.31 798.63C2480.07 859.798 2522.65 894.535 2582.48 871.033C2601.13 862.997 2617.88 851.123 2631.63 836.184C2639.62 845.835 2649.49 853.753 2660.65 859.453C2671.81 865.153 2684.01 868.515 2696.51 869.332C2699.41 869.834 2720.1 870.782 2713.82 861.192C2674.93 803.816 2742.4 647.162 2806.7 627.061C2794.84 655.516 2786.57 685.334 2782.08 715.829C2767.97 813.964 2816.96 883.551 2895.58 852.633C2923.73 839.446 2947.88 819.021 2965.56 793.445C2988.31 838.275 3033.92 859.073 3079.2 835.459C3012.06 915.389 3057.18 1015.73 3133.01 1010.54C3228.08 1004.3 3244.17 856.313 3262.82 715.299V715.327Z" stroke="#232634" stroke-width="0.810345" stroke-miterlimit="20" stroke-linejoin="round"></path><path d="M2869.26 1152.67C2968.88 1259.75 2843.44 1328.9 2818.41 1243C2817.24 1239.03 2816.51 1234.94 2816.23 1230.82C2828.28 1211.02 2835.27 1197.28 2835.27 1197.28L2829.86 1183.76C2839.6 1169.69 2853.32 1158.86 2869.26 1152.67ZM2748.06 1023.42C2776.28 1014.17 2802.82 1004.99 2822.34 998.33C2809.01 1029.89 2817.54 1070.31 2838.9 1108.98C2749.79 1144.95 2713.07 1215.31 2729.8 1272.44C2720.82 1280.36 2710.01 1285.82 2698.32 1288.39C2680.01 1291.59 2671.73 1272.19 2674.07 1239.4C2677.13 1207.95 2711.09 1108.04 2748.06 1023.42ZM2477.54 1086.15C2483.2 1103.69 2485.29 1122.17 2483.64 1140.51C2439.53 1140.96 2411.24 1084.37 2427.71 1062.09C2444.8 1038.36 2470.79 1068.08 2477.54 1086.15ZM2351.18 1151.81C2360.74 1173.14 2377.13 1190.68 2397.76 1201.68C2418.39 1212.67 2442.09 1216.49 2465.13 1212.53H2465.85C2448.07 1256.33 2413.89 1291.46 2370.59 1310.44C2328.54 1321.45 2316.78 1291.59 2320.4 1256.58C2325.5 1220.33 2335.87 1185.04 2351.18 1151.81ZM1875.45 1210.99C1975.07 1318.05 1849.64 1387.19 1824.6 1301.32C1820.53 1282.65 1823.46 1263.13 1832.83 1246.48C1842.21 1229.83 1857.38 1217.2 1875.45 1210.99ZM3126.46 1084.31C3139.87 1070.76 3116.59 1050.1 3094.51 1051.3C3041.06 1056.36 2988.06 1065.4 2935.95 1078.34C2928.98 1068.84 2908.88 1041.6 2906.48 1037.47C2878.71 989.409 2963.66 981.575 2941 1019.13C2923.71 1050.69 2965.81 1040.4 2980.03 1016.15C3013.57 958.045 2953.99 937.414 2906.7 944.439C2891.82 946.678 2877.34 951.063 2863.71 957.459C2834.01 956.411 2804.29 958.938 2775.19 964.987C2781.77 950.768 2789.3 937.079 2797.66 923.865C2817.85 892.138 2831.65 873.598 2813.75 871.089C2754.92 863.868 2717.17 887.398 2687.09 931.782C2676.16 948.375 2666.22 965.597 2657.31 983.359C2610.83 991.723 2574.9 998.107 2574.9 998.107C2534.22 1008.31 2565.5 1067.55 2593.94 1066.61C2603.98 1066.1 2613.93 1064.35 2623.52 1061.31C2621.43 1066.58 2619.39 1071.9 2617.39 1077.31C2594.13 1092.35 2570.19 1106.31 2545.65 1119.13C2544.17 1088.6 2531.84 1059.6 2510.88 1037.36C2499.19 1025.54 2484.87 1016.65 2469.09 1011.4C2453.31 1006.16 2436.52 1004.72 2420.07 1007.2C2352.05 1011.88 2239.27 1101.62 2218.11 1249.86C2216.61 1260.34 2216.24 1270.96 2216.99 1281.53C2204.9 1299.96 2186.65 1313.49 2165.5 1319.69C2124.54 1325.63 2139.4 1252.31 2164.77 1176.26C2223.18 1102.99 2301.27 990.273 2318.09 936.354C2320.21 928.966 2321.1 921.272 2320.74 913.577C2322.05 872.121 2294.3 867.771 2294.86 867.827C2191.23 855.17 2118.52 990.831 2077.34 1111.66C2031.89 1117.77 1986.75 1126.16 1942.14 1136.78C1935.17 1127.24 1915.04 1100.01 1912.67 1095.91C1884.9 1047.82 1969.86 1039.98 1947.16 1077.51C1929.88 1109.09 1971.98 1098.81 1986.19 1074.55C2019.76 1016.45 1960.18 995.821 1912.9 1002.85C1809.29 1019.57 1806.03 1096.47 1845.09 1167.33C1692.86 1228.81 1693.28 1390.73 1852.73 1415.46C1870.59 1419.06 1888.99 1419.06 1906.85 1415.48C1924.72 1411.9 1941.69 1404.8 1956.78 1394.59C1971.87 1384.39 1984.79 1371.28 1994.77 1356.04C2004.75 1340.8 2011.59 1323.73 2014.91 1305.81C2022.8 1247.1 2002.84 1222.7 1971.78 1179.07C2001.95 1169.17 2032.67 1161.01 2063.79 1154.65C2053.47 1189.3 2045.4 1224.59 2039.64 1260.28C2029.21 1336.17 2060.64 1433.75 2153.12 1397.09C2184.53 1381.94 2211.09 1358.31 2229.79 1328.87C2249.3 1372.92 2295.75 1398.57 2343.43 1391.6V1392.32C2431.87 1383.57 2517.6 1280.52 2540.16 1181.22C2559.14 1169.84 2577.52 1157.47 2595.19 1144.14C2573.84 1217.52 2563.85 1290.03 2584.74 1329.87C2593.47 1347.97 2608.98 1361.89 2627.91 1368.62C2646.84 1375.36 2667.66 1374.35 2685.86 1365.84C2712.36 1354.11 2735.88 1336.54 2754.64 1314.45C2779.81 1338.3 2812.08 1353.28 2846.54 1357.11C2864.4 1360.7 2882.79 1360.71 2900.65 1357.13C2918.52 1353.55 2935.49 1346.45 2950.58 1336.25C2965.67 1326.05 2978.59 1312.95 2988.57 1297.71C2998.55 1282.47 3005.4 1265.4 3008.72 1247.49C3016.61 1188.77 2996.65 1164.38 2965.59 1120.75C3018.06 1104 3071.89 1091.8 3126.46 1084.31Z" fill="#FFBC0D"></path><path d="M2869.26 1152.67C2968.88 1259.75 2843.44 1328.9 2818.41 1243C2817.24 1239.03 2816.51 1234.94 2816.23 1230.82C2828.28 1211.02 2835.27 1197.28 2835.27 1197.28L2829.86 1183.76C2839.6 1169.69 2853.32 1158.86 2869.26 1152.67ZM2748.06 1023.42C2776.28 1014.17 2802.82 1004.99 2822.34 998.33C2809.01 1029.89 2817.54 1070.31 2838.9 1108.98C2749.79 1144.95 2713.07 1215.31 2729.8 1272.44C2720.82 1280.36 2710.01 1285.82 2698.32 1288.39C2680.01 1291.59 2671.73 1272.19 2674.07 1239.4C2677.13 1207.95 2711.09 1108.04 2748.06 1023.42ZM2477.54 1086.15C2483.2 1103.69 2485.29 1122.17 2483.64 1140.51C2439.53 1140.96 2411.24 1084.37 2427.71 1062.09C2444.8 1038.36 2470.79 1068.08 2477.54 1086.15ZM2351.18 1151.81C2360.74 1173.14 2377.13 1190.68 2397.76 1201.68C2418.39 1212.67 2442.09 1216.49 2465.13 1212.53H2465.85C2448.07 1256.33 2413.89 1291.46 2370.59 1310.44C2328.54 1321.45 2316.78 1291.59 2320.4 1256.58C2325.5 1220.33 2335.87 1185.04 2351.18 1151.81ZM1875.45 1210.99C1975.07 1318.05 1849.64 1387.19 1824.6 1301.32C1820.53 1282.65 1823.46 1263.13 1832.83 1246.48C1842.21 1229.83 1857.38 1217.2 1875.45 1210.99ZM3126.46 1084.31C3139.87 1070.76 3116.59 1050.1 3094.51 1051.3C3041.06 1056.36 2988.06 1065.4 2935.95 1078.34C2928.98 1068.84 2908.88 1041.6 2906.48 1037.47C2878.71 989.409 2963.66 981.575 2941 1019.13C2923.71 1050.69 2965.81 1040.4 2980.03 1016.15C3013.57 958.045 2953.99 937.414 2906.7 944.439C2891.82 946.678 2877.34 951.063 2863.71 957.459C2834.01 956.411 2804.29 958.938 2775.19 964.987C2781.77 950.768 2789.3 937.079 2797.66 923.865C2817.85 892.138 2831.65 873.598 2813.75 871.089C2754.92 863.868 2717.17 887.398 2687.09 931.782C2676.16 948.375 2666.22 965.597 2657.31 983.359C2610.83 991.723 2574.9 998.107 2574.9 998.107C2534.22 1008.31 2565.5 1067.55 2593.94 1066.61C2603.98 1066.1 2613.93 1064.35 2623.52 1061.31C2621.43 1066.58 2619.39 1071.9 2617.39 1077.31C2594.13 1092.35 2570.19 1106.31 2545.65 1119.13C2544.17 1088.6 2531.84 1059.6 2510.88 1037.36C2499.19 1025.54 2484.87 1016.65 2469.09 1011.4C2453.31 1006.16 2436.52 1004.72 2420.07 1007.2C2352.05 1011.88 2239.27 1101.62 2218.11 1249.86C2216.61 1260.34 2216.24 1270.96 2216.99 1281.53C2204.9 1299.96 2186.65 1313.49 2165.5 1319.69C2124.54 1325.63 2139.4 1252.31 2164.77 1176.26C2223.18 1102.99 2301.27 990.273 2318.09 936.354C2320.21 928.966 2321.1 921.272 2320.74 913.577C2322.05 872.121 2294.3 867.771 2294.86 867.827C2191.23 855.17 2118.52 990.831 2077.34 1111.66C2031.89 1117.77 1986.75 1126.16 1942.14 1136.78C1935.17 1127.24 1915.04 1100.01 1912.67 1095.91C1884.9 1047.82 1969.86 1039.98 1947.16 1077.51C1929.88 1109.09 1971.98 1098.81 1986.19 1074.55C2019.76 1016.45 1960.18 995.821 1912.9 1002.85C1809.29 1019.57 1806.03 1096.47 1845.09 1167.33C1692.86 1228.81 1693.28 1390.73 1852.73 1415.46C1870.59 1419.06 1888.99 1419.06 1906.85 1415.48C1924.72 1411.9 1941.69 1404.8 1956.78 1394.59C1971.87 1384.39 1984.79 1371.28 1994.77 1356.04C2004.75 1340.8 2011.59 1323.73 2014.91 1305.81C2022.8 1247.1 2002.84 1222.7 1971.78 1179.07C2001.95 1169.17 2032.67 1161.01 2063.79 1154.65C2053.47 1189.3 2045.4 1224.59 2039.64 1260.28C2029.21 1336.17 2060.64 1433.75 2153.12 1397.09C2184.53 1381.94 2211.09 1358.31 2229.79 1328.87C2249.3 1372.92 2295.75 1398.57 2343.43 1391.6V1392.32C2431.87 1383.57 2517.6 1280.52 2540.16 1181.22C2559.14 1169.84 2577.52 1157.47 2595.19 1144.14C2573.84 1217.52 2563.85 1290.03 2584.74 1329.87C2593.47 1347.97 2608.98 1361.89 2627.91 1368.62C2646.84 1375.36 2667.66 1374.35 2685.86 1365.84C2712.36 1354.11 2735.88 1336.54 2754.64 1314.45C2779.81 1338.3 2812.08 1353.28 2846.54 1357.11C2864.4 1360.7 2882.79 1360.71 2900.65 1357.13C2918.52 1353.55 2935.49 1346.45 2950.58 1336.25C2965.67 1326.05 2978.59 1312.95 2988.57 1297.71C2998.55 1282.47 3005.4 1265.4 3008.72 1247.49C3016.61 1188.77 2996.65 1164.38 2965.59 1120.75C3018.06 1104 3071.89 1091.8 3126.46 1084.31Z" stroke="#232634" stroke-width="0.810345" stroke-miterlimit="20" stroke-linejoin="round"></path></svg> 