<?xml version="1.0" encoding="utf-8"?>
<!-- Generator: Adobe Illustrator 28.0.0, SVG Export Plug-In . SVG Version: 6.00 Build 0)  -->
<svg version="1.1" id="Шар_1" xmlns="http://www.w3.org/2000/svg" xmlns:xlink="http://www.w3.org/1999/xlink" x="0px" y="0px"
	 viewBox="0 0 128 64" style="enable-background:new 0 0 128 64;" width="128" height="64" xml:space="preserve">
<style type="text/css">
	.st0{fill:#00A367;}
	.st1{fill:url(#SVGID_1_);}
	.st2{fill:url(#SVGID_00000179609648344299428250000016704974331871716502_);}
</style>
<g>
	<g>
		<path class="st0" d="M88.24,35.33c-0.52,0.23-1.36,0.44-2.4,0.44c-2.33,0-3.75-1.47-3.75-3.83c0-1.74,0.7-3.4,1.98-4.46
			c0.95-0.81,2.13-1.25,3.49-1.25c1.03,0,1.76,0.26,2,0.45l-0.37,0.92c-0.34-0.21-1-0.38-1.83-0.38c-0.96,0-1.93,0.37-2.65,1.04
			c-0.86,0.81-1.41,2.11-1.41,3.51c0,1.66,0.75,3.02,2.81,3.02c0.7,0,1.47-0.14,1.98-0.4L88.24,35.33z"/>
		<path class="st0" d="M91.93,32.71l-1.47,2.92h-1.21l4.79-9.25h1.34l1.28,9.25h-1.17l-0.37-2.92H91.93z M95.03,31.81l-0.36-2.68
			c-0.06-0.48-0.12-1.15-0.16-1.7h-0.03c-0.25,0.55-0.48,1.12-0.75,1.69l-1.39,2.69H95.03z"/>
		<path class="st0" d="M98.54,34.21c0.49,0.34,1.19,0.59,1.96,0.59c1.04,0,2-0.62,2-1.74c0-0.69-0.4-1.19-1.36-1.73
			c-1.18-0.63-1.84-1.37-1.84-2.37c0-1.65,1.43-2.72,3.13-2.72c0.89,0,1.56,0.27,1.89,0.49l-0.41,0.92
			c-0.29-0.16-0.86-0.44-1.6-0.43c-1.14,0-1.83,0.75-1.83,1.51c0,0.75,0.47,1.18,1.43,1.72c1.14,0.6,1.77,1.33,1.77,2.47
			c0,1.61-1.26,2.85-3.33,2.85c-0.93,0-1.84-0.3-2.22-0.63L98.54,34.21z"/>
		<path class="st0" d="M108.21,26.39l-1.76,9.25h-1.14l1.76-9.25H108.21z"/>
		<path class="st0" d="M109.07,35.64l1.76-9.25h1.25l2.13,5.24c0.4,1.04,0.62,1.78,0.81,2.58l0.03-0.01
			c0.05-0.84,0.15-1.6,0.38-2.89l0.93-4.91h1.08l-1.77,9.25h-1.13l-2.1-5.23c-0.45-1.14-0.66-1.8-0.86-2.66l-0.04,0.01
			c-0.1,0.86-0.25,1.78-0.48,3.05l-0.92,4.83H109.07z"/>
		<path class="st0" d="M126.88,30.02c0,1.61-0.58,3.38-1.67,4.47c-0.82,0.81-1.89,1.29-3.17,1.29c-2.39,0-3.51-1.8-3.51-3.76
			c0-1.63,0.64-3.43,1.77-4.54c0.78-0.77,1.93-1.25,3.1-1.25C125.87,26.24,126.88,28.05,126.88,30.02z M121.13,28.13
			c-0.89,0.89-1.41,2.51-1.41,3.8c0,1.51,0.67,2.9,2.48,2.9c0.78,0,1.54-0.34,2.11-0.92c0.86-0.88,1.37-2.54,1.37-3.83
			c0-1.32-0.43-2.88-2.44-2.88C122.42,27.2,121.69,27.56,121.13,28.13z"/>
	</g>
</g>
<linearGradient id="SVGID_1_" gradientUnits="userSpaceOnUse" x1="60.046" y1="59.648" x2="92.8324" y2="21.9679">
	<stop  offset="0" style="stop-color:#9DC41A"/>
	<stop  offset="1" style="stop-color:#00A367"/>
</linearGradient>
<polygon class="st1" points="89.39,10.84 83.1,10.84 65.14,31.43 62.88,34.03 75.03,47.97 67.08,47.97 58.9,38.59 56.92,40.86 
	56.8,41 55.75,42.2 55.75,42.2 46.52,52.78 52.81,52.78 58.9,45.8 64.99,52.78 67.36,52.78 71.27,52.78 79.23,52.78 81.73,52.78 
	85.52,52.78 69.16,34.03 "/>
<linearGradient id="SVGID_00000068640945953128091270000000828567528591483795_" gradientUnits="userSpaceOnUse" x1="15.2694" y1="5.0077" x2="44.3856" y2="36.8151">
	<stop  offset="0.2423" style="stop-color:#FEE64B"/>
	<stop  offset="1" style="stop-color:#AE8235"/>
</linearGradient>
<path style="fill:url(#SVGID_00000068640945953128091270000000828567528591483795_);" d="M58.84,29.4l1.98-2.27L70.9,15.57h-6.29
	l-5.77,6.62l-5.77-6.62h-2.18h-4.11h-7.96h-2.31h-3.98l16.04,18.39l-13.25,15.2l-9.63-11.05c3.84-1.98,6.48-5.99,6.48-10.6
	c0-6.58-5.35-11.94-11.94-11.94H4.07v4.86h0l0,0v0.02h0.01l10.64,12.19h5.51c0.25,0,0.49-0.02,0.72-0.06L10.37,20.45h9.86
	c3.89,0,7.06,3.17,7.06,7.06c0,3.89-3.17,7.06-7.06,7.06H5.09l-4.25,4.88h19.4c0.11,0,0.21-0.01,0.32-0.02l11.63,13.34l-0.02,0.02
	h5.59h0.7l16.41-18.82L43.02,20.39h7.96L58.84,29.4z"/>
</svg>
